var fontJSON2=
{"glyphs":{"0":{"ha":1734,"x_min":140,"x_max":2016,"o":"m 427 123 q 1413 191 863 -221 q 1728 561 1588 320 q 1870 992 1844 781 q 1828 1337 1891 1181 q 1365 1595 1683 1594 q 297 764 557 1617 q 271 478 263 623 q 427 123 293 250 m 1326 903 q 1166 1029 1312 1026 q 914 940 1023 1037 q 815 697 791 816 q 973 560 848 557 q 1274 746 1155 574 q 1326 903 1329 832 m 347 31 q 149 469 176 193 q 180 797 140 633 q 1367 1717 467 1742 q 1938 1390 1754 1716 q 1991 979 2016 1199 q 1834 501 1963 745 q 1485 93 1681 237 q 347 31 861 -376 m 1448 913 q 1375 678 1453 798 q 979 438 1222 458 q 696 671 752 433 q 830 1028 659 855 q 1171 1151 980 1162 q 1448 913 1419 1145 z "},"1":{"ha":1091,"x_min":248,"x_max":1521,"o":"m 1371 1590 q 903 1590 1148 1597 l 373 1110 q 463 864 382 930 l 793 1041 q 564 -53 647 406 q 1025 -52 760 -77 q 1371 1590 1188 734 m 1521 1706 q 1127 -164 1308 709 q 420 -159 759 -201 q 614 806 528 431 l 448 718 q 248 1162 263 870 l 854 1711 q 1521 1706 1148 1719 z "},"2":{"ha":1411,"x_min":27,"x_max":1768,"o":"m 1164 1590 q 475 1240 686 1575 q 362 1003 366 1073 q 600 900 403 958 q 861 1217 683 1136 q 1128 1006 1184 1298 q 1053 837 1112 921 q 236 271 833 549 q 163 -61 175 48 q 1301 -59 766 -69 q 1419 292 1377 70 q 795 292 1327 299 q 1581 1147 1502 770 q 1465 1530 1633 1417 q 1164 1590 1311 1603 m 1157 1712 q 1525 1637 1333 1727 q 1700 1122 1768 1474 q 1202 420 1612 696 q 1564 405 1331 421 q 1371 -180 1493 26 q 27 -182 766 -191 q 133 357 54 71 q 954 909 755 647 q 1008 1029 997 970 q 902 1101 1028 1133 q 677 749 781 1046 q 237 958 336 851 q 372 1305 247 1112 q 1157 1712 618 1694 z "},"3":{"ha":1390,"x_min":16,"x_max":1747,"o":"m 1485 1164 q 1571 1312 1555 1230 q 1358 1560 1605 1468 q 471 1444 945 1714 q 524 1238 494 1295 q 820 1303 606 1295 q 970 1059 1198 1301 l 743 895 q 699 684 700 780 q 1031 416 1025 715 q 371 324 932 13 q 164 43 252 178 q 524 -81 233 -52 q 1181 25 918 -117 q 1445 553 1474 210 q 1136 882 1416 669 l 1485 1164 m 1565 1072 l 1334 885 q 1566 573 1524 740 q 1242 -81 1603 146 q 513 -203 943 -242 q 16 39 168 -167 q 340 480 154 250 q 909 429 852 197 q 574 548 906 581 q 641 972 578 803 l 889 1152 q 822 1181 917 1181 q 478 1059 646 1174 q 338 1510 377 1257 q 1400 1674 935 1848 q 1691 1288 1747 1546 q 1565 1072 1667 1167 z "},"4":{"ha":1338,"x_min":90,"x_max":1589,"o":"m 1159 1607 q 315 771 772 1197 q 233 406 256 541 q 712 403 303 404 q 605 -47 650 179 q 967 -37 741 -54 q 1069 412 986 81 l 1374 414 q 1444 747 1419 591 q 728 772 1158 726 q 1413 1392 1185 1161 q 1159 1607 1295 1521 m 1139 1764 q 1581 1388 1373 1616 q 1024 863 1268 1072 q 1589 880 1160 848 q 1469 292 1539 566 l 1164 290 q 1073 -151 1105 57 q 458 -161 742 -176 q 551 281 530 208 q 90 288 301 281 q 205 836 137 566 q 1139 1764 686 1284 z "},"5":{"ha":1386,"x_min":28,"x_max":1734,"o":"m 761 1342 q 1485 1345 1122 1348 q 1590 1598 1575 1514 q 550 1605 1067 1590 q 352 699 445 1174 l 639 699 q 905 763 713 823 q 1063 486 1100 695 q 349 404 961 180 q 169 113 218 239 q 545 -37 258 12 q 1061 23 816 -86 q 1439 725 1517 283 q 1055 1053 1371 1019 q 677 937 884 1069 l 761 1342 m 861 1221 l 838 1139 q 1066 1175 931 1190 q 1559 749 1471 1132 q 1116 -85 1652 219 q 524 -158 831 -214 q 28 89 195 -101 q 309 549 111 300 q 944 515 885 338 q 867 648 962 614 q 708 576 768 677 l 203 577 q 454 1730 326 1200 q 1734 1723 1068 1712 q 1557 1221 1693 1474 q 861 1221 1122 1226 z "},"6":{"ha":1390,"x_min":-24,"x_max":1784,"o":"m 1645 1537 q 846 1561 1257 1764 q 450 1126 657 1464 q 401 82 119 424 q 1168 43 739 -201 q 1471 572 1444 214 q 1240 912 1477 853 q 650 769 949 1002 q 993 1242 791 1150 q 1556 1185 1245 1319 q 1645 1537 1587 1282 m 851 444 q 867 357 831 378 q 1036 414 959 335 q 1032 563 1109 522 q 851 444 884 578 m 1784 1597 q 1631 1019 1705 1249 q 1036 1128 1238 1189 q 928 1038 968 1102 q 1270 1030 1023 1094 q 1593 566 1601 948 q 1231 -61 1561 144 q 315 -5 726 -349 q 342 1184 -24 406 q 791 1670 571 1558 q 1784 1597 1262 1902 m 733 476 q 1069 682 791 710 q 1131 337 1287 564 q 821 243 998 201 q 733 476 686 321 z "},"7":{"ha":1369,"x_min":79,"x_max":1830,"o":"m 1692 1618 q 522 1583 844 1628 q 463 1267 473 1404 l 1194 1266 q 289 -51 662 540 q 649 -52 416 -62 q 1609 1273 967 448 q 1692 1618 1679 1516 m 1830 1739 q 1720 1216 1799 1492 q 718 -171 1067 377 q 79 -155 413 -184 q 954 1144 561 609 l 332 1145 q 425 1693 353 1425 q 1830 1739 836 1750 z "},"8":{"ha":1428,"x_min":-33,"x_max":1775,"o":"m 1305 1618 q 713 1493 1001 1660 q 449 1173 480 1332 q 602 783 407 965 q 277 138 124 439 q 540 -35 349 7 q 1195 47 846 -119 q 1501 428 1476 220 q 1223 809 1505 673 q 1603 1228 1572 1026 q 1305 1618 1641 1534 m 919 1057 q 1095 1091 1017 1018 q 1082 1181 1136 1161 q 924 1122 990 1202 q 919 1057 905 1064 m 748 327 q 991 365 873 268 q 987 503 1065 469 q 762 432 866 538 q 748 327 723 342 m 1329 1737 q 1724 1212 1775 1626 q 1440 811 1701 966 q 1624 420 1625 701 q 1253 -60 1590 146 q 511 -153 858 -249 q 170 81 268 -100 q 410 795 -33 477 q 329 1198 273 923 q 648 1596 370 1404 q 1329 1737 976 1786 m 868 945 q 814 1182 756 1003 q 1118 1298 945 1338 q 1191 1014 1314 1225 q 868 945 1043 876 m 690 220 q 660 501 568 294 q 1030 618 829 677 q 1082 281 1250 519 q 690 220 891 124 z "},"9":{"ha":1383,"x_min":32,"x_max":1864,"o":"m 178 67 q 994 31 582 -172 q 1390 467 1182 128 q 1438 1510 1721 1168 q 671 1548 1117 1778 q 369 1021 396 1378 q 600 680 362 739 q 1191 823 802 629 q 847 350 1048 442 q 304 399 595 273 q 178 67 251 302 m 989 1149 q 972 1236 1009 1214 q 804 1178 881 1257 q 808 1029 730 1071 q 989 1149 956 1014 m 32 12 q 251 555 138 351 q 804 464 602 404 q 922 589 899 511 q 570 562 753 519 q 247 1026 238 644 q 611 1654 279 1449 q 1525 1597 1133 1923 q 1498 408 1864 1186 q 1049 -77 1268 35 q 32 12 576 -310 m 1107 1116 q 771 910 1048 882 q 709 1255 553 1029 q 1019 1350 842 1392 q 1107 1116 1154 1271 z "}," ":{"ha":345,"x_min":0,"x_max":0,"o":""}," ":{"ha":345,"x_min":0,"x_max":0,"o":""},"!":{"ha":622,"x_min":33,"x_max":1065,"o":"m 909 1575 q 476 1568 739 1586 q 275 448 322 782 q 198 470 199 472 q 619 470 453 464 q 909 1575 705 773 m 198 116 q 262 -4 177 20 q 425 12 347 -28 q 533 132 494 48 q 502 275 568 222 q 338 266 445 309 q 198 116 232 223 m 1065 1687 q 712 352 823 742 q 298 345 454 342 q 140 363 292 316 q 374 1683 202 802 q 1065 1687 739 1708 m 80 147 q 295 380 133 315 q 572 375 456 445 q 645 84 715 261 q 481 -96 587 -41 q 197 -113 361 -158 q 80 147 33 -67 z "},"\"":{"ha":1093,"x_min":370,"x_max":1560,"o":"m 756 1853 q 553 1775 608 1853 q 507 1632 498 1697 q 650 1567 516 1568 q 520 1202 625 1343 q 520 1196 524 1193 q 873 1679 814 1400 q 756 1853 897 1848 m 1280 1853 q 1076 1775 1131 1853 q 1030 1632 1021 1697 q 1174 1567 1040 1568 q 1044 1202 1148 1343 q 1044 1196 1047 1193 q 1396 1679 1337 1400 q 1280 1853 1420 1848 m 759 1976 q 994 1657 1036 1965 q 505 1036 923 1327 q 382 1221 418 1126 q 513 1446 507 1390 q 390 1587 410 1447 q 457 1851 370 1727 q 759 1976 544 1976 m 1282 1976 q 1517 1657 1560 1965 q 1029 1036 1447 1327 q 906 1221 941 1126 q 1037 1446 1031 1390 q 914 1587 934 1447 q 981 1851 894 1727 q 1282 1976 1067 1976 z "},"#":{"ha":1653,"x_min":82,"x_max":2011,"o":"m 618 608 q 296 604 385 605 q 234 414 248 476 q 561 414 252 414 q 457 60 477 127 q 659 67 519 55 q 760 411 682 143 q 1101 409 908 411 q 998 60 1017 125 q 1199 67 1060 55 q 1298 408 1222 142 q 1651 406 1546 407 q 1721 612 1697 519 q 1358 612 1681 612 q 1454 948 1411 798 q 1786 947 1692 947 q 1855 1153 1831 1060 q 1511 1153 1823 1153 q 1607 1493 1590 1435 q 1421 1486 1529 1497 q 1321 1151 1402 1421 q 970 1147 1170 1151 q 1067 1493 1050 1433 q 881 1486 988 1497 q 779 1148 861 1419 q 431 1145 534 1145 q 368 956 382 1017 q 720 951 395 955 q 618 608 665 761 m 1006 828 q 979 732 988 765 q 1069 733 1010 732 q 1097 827 1088 797 q 1006 828 1064 828 m 527 728 q 558 831 548 796 q 216 835 393 833 q 347 1265 265 1052 q 688 1269 532 1267 q 787 1598 744 1455 q 1227 1609 984 1619 q 1132 1272 1168 1400 q 1230 1273 1168 1273 q 1328 1598 1285 1456 q 1767 1609 1525 1619 q 1672 1275 1708 1401 q 2011 1274 1823 1275 q 1868 825 1948 1022 q 1546 826 1692 825 q 1520 734 1529 764 q 1878 733 1681 734 q 1734 284 1813 481 q 1390 286 1546 285 q 1293 -48 1339 109 q 838 -52 1061 -67 q 938 288 900 159 q 851 289 907 289 q 752 -48 798 109 q 297 -52 521 -67 q 398 292 360 161 q 82 295 250 292 q 212 725 131 511 q 527 728 384 727 m 913 950 q 1260 948 1065 950 q 1160 612 1205 762 q 817 608 1012 610 q 913 950 870 798 z "},"$":{"ha":1436,"x_min":216,"x_max":1647,"o":"m 1054 1628 q 597 1394 775 1577 q 422 862 394 1164 q 531 674 427 772 q 859 587 635 575 q 1103 479 1104 642 q 891 260 1107 326 q 452 249 541 181 q 361 -87 409 86 q 725 -96 434 -121 l 689 -274 q 911 -275 795 -282 q 961 -39 920 -231 q 1469 450 1347 112 q 1451 791 1518 604 q 1265 901 1407 873 q 976 919 1123 929 q 825 1072 828 909 q 1381 1244 845 1343 l 1485 1591 q 1274 1632 1436 1606 q 1316 1829 1316 1833 q 1092 1824 1219 1830 l 1054 1628 m 949 1733 l 990 1942 q 1468 1950 1217 1952 q 1420 1732 1436 1807 q 1637 1671 1463 1725 l 1466 1104 q 947 1069 956 1198 q 1039 1046 947 1039 q 1309 1017 1131 1053 q 1563 841 1487 982 q 1584 411 1647 606 q 1067 -128 1443 18 q 1012 -391 1040 -256 q 543 -385 794 -404 l 573 -231 q 216 -155 412 -245 q 380 456 291 117 q 860 378 570 313 q 981 477 983 416 q 876 466 981 489 q 449 584 589 450 q 300 852 308 717 q 508 1476 268 1204 q 949 1733 714 1689 z "},"%":{"ha":1531,"x_min":220,"x_max":1866,"o":"m 1683 1584 q 1348 1671 1572 1625 q 366 -61 661 482 q 300 2 306 13 q 661 -111 513 -77 q 1683 1584 1177 777 m 589 1478 q 508 1209 444 1347 q 585 1152 530 1170 q 661 1143 622 1141 q 953 1398 909 1165 q 917 1532 970 1482 q 833 1560 883 1556 q 709 1546 777 1566 q 589 1478 635 1521 m 751 1331 q 745 1325 745 1329 q 730 1363 752 1353 q 709 1365 716 1370 q 709 1367 709 1364 q 735 1333 704 1343 q 751 1331 747 1329 m 1185 404 q 1105 134 1040 273 q 1181 78 1127 96 q 1257 68 1218 67 q 1549 324 1506 91 q 1514 458 1567 408 q 1430 486 1480 481 q 1305 472 1373 492 q 1185 404 1232 447 m 1347 256 q 1341 251 1341 254 q 1327 289 1348 279 q 1305 291 1313 296 q 1305 292 1305 291 q 1332 258 1301 269 q 1347 256 1344 255 m 1866 1645 q 722 -249 1281 713 q 359 -150 477 -194 q 220 -75 329 -208 q 1287 1808 555 542 q 1866 1645 1606 1743 m 507 1569 q 673 1663 572 1628 q 846 1683 764 1689 q 994 1627 926 1674 q 1072 1375 1103 1524 q 667 1021 1013 1053 q 549 1036 607 1019 q 399 1152 449 1068 q 507 1569 295 1377 m 703 1443 q 772 1449 739 1458 q 829 1345 845 1423 q 781 1266 821 1297 q 677 1253 728 1229 q 627 1358 607 1286 q 703 1443 642 1417 m 1103 495 q 1269 589 1168 554 q 1442 608 1361 615 q 1591 553 1523 600 q 1668 300 1701 450 q 1264 -54 1609 -22 q 1145 -39 1203 -55 q 996 79 1044 -6 q 1103 495 891 302 m 1299 369 q 1368 375 1335 384 q 1426 272 1440 349 q 1377 192 1418 222 q 1274 179 1324 154 q 1223 283 1203 212 q 1299 369 1240 342 z "},"&":{"ha":1619,"x_min":96,"x_max":1751,"o":"m 1202 1566 q 903 1541 1087 1602 q 604 1274 669 1433 q 669 863 524 1082 q 402 661 507 758 q 218 279 243 522 q 498 -86 220 -48 q 943 16 694 -125 q 1257 220 1107 115 q 1411 66 1412 65 q 1587 212 1507 132 q 1411 395 1535 277 l 1535 566 q 1399 669 1450 645 q 1293 529 1386 654 q 1029 824 1148 644 q 1435 1219 1398 961 q 1395 1424 1450 1305 q 1202 1566 1331 1540 m 956 1073 q 1029 1188 1092 1130 q 937 1130 955 1210 q 956 1073 930 1088 m 607 369 q 660 290 593 298 q 899 382 766 273 q 755 519 821 449 q 607 369 604 467 m 1232 1684 q 1503 1480 1409 1649 q 1556 1200 1576 1321 q 1216 763 1510 871 q 1270 703 1239 728 q 1371 817 1293 733 q 1698 583 1519 748 l 1572 410 q 1751 202 1625 359 q 1380 -102 1586 37 q 1244 62 1318 -14 q 1004 -90 1173 12 q 478 -207 714 -254 q 96 285 98 -155 q 321 752 126 581 q 499 899 431 854 q 491 1320 387 1068 q 859 1655 574 1524 q 1232 1684 1086 1731 m 945 936 q 817 1153 797 1027 q 1091 1298 864 1363 q 945 936 1313 1090 m 485 378 q 789 661 479 552 q 1087 380 905 537 q 644 170 802 142 q 485 378 450 191 z "},"'":{"ha":570,"x_min":370,"x_max":1036,"o":"m 756 1853 q 553 1775 608 1853 q 507 1632 498 1697 q 650 1567 516 1568 q 520 1202 625 1343 q 520 1196 524 1193 q 873 1679 814 1400 q 756 1853 897 1848 m 759 1976 q 994 1657 1036 1965 q 505 1036 923 1327 q 382 1221 418 1126 q 513 1446 507 1390 q 390 1587 410 1447 q 457 1851 370 1727 q 759 1976 544 1976 z "},"(":{"ha":1246,"x_min":83,"x_max":1718,"o":"m 708 -490 q 1072 -554 866 -553 l 1100 -363 q 632 766 399 -255 q 1508 1584 825 1446 l 1559 1793 q 1057 1615 1367 1778 q 581 1206 808 1476 q 452 1017 510 1117 q 323 725 361 850 q 275 28 209 355 q 399 -243 307 -115 q 708 -490 522 -407 m 661 -603 q 300 -315 444 -506 q 156 2 193 -165 q 206 762 83 361 q 345 1076 248 897 q 487 1283 409 1186 q 999 1722 729 1572 q 1718 1927 1332 1898 l 1607 1479 q 750 736 922 1341 q 1239 -261 547 -155 l 1177 -676 q 661 -603 842 -675 z "},")":{"ha":1246,"x_min":-124,"x_max":1470,"o":"m 36 -554 q 404 -489 216 -553 q 833 -233 634 -403 q 1080 47 986 -100 q 1333 750 1289 379 q 1328 1038 1348 873 q 1280 1222 1312 1136 q 988 1618 1171 1485 q 545 1795 753 1778 l 506 1578 q 1029 741 1129 1441 q 87 -367 833 -259 l 36 -554 m -124 -676 l -9 -257 q 909 762 730 -151 q 365 1485 992 1346 l 444 1925 q 1059 1718 795 1898 q 1394 1267 1270 1563 q 1449 1055 1431 1167 q 1455 736 1470 873 q 1183 -18 1407 337 q 913 -326 1080 -180 q 446 -604 697 -510 q -124 -676 236 -675 z "},"*":{"ha":950,"x_min":252,"x_max":1377,"o":"m 835 1240 q 1050 1063 1042 1069 l 1125 1140 q 885 1345 1094 1167 q 1215 1552 1154 1513 l 1183 1609 q 871 1419 1169 1600 q 937 1749 937 1748 l 854 1746 q 787 1428 848 1718 q 565 1613 574 1605 q 490 1529 534 1584 q 727 1330 519 1503 q 401 1129 462 1167 q 429 1063 421 1076 q 751 1261 448 1075 q 680 924 681 932 q 768 924 726 920 q 835 1240 774 952 m 912 1018 q 867 810 893 926 q 533 814 726 798 q 572 1008 562 957 q 390 895 512 970 q 252 1179 311 1022 q 518 1345 397 1270 q 320 1512 441 1409 q 558 1777 444 1666 q 709 1652 653 1699 q 755 1866 729 1744 l 1085 1876 q 1046 1668 1057 1725 q 1230 1780 1105 1704 l 1377 1510 q 1091 1330 1219 1410 q 1303 1148 1174 1259 l 1061 899 q 912 1018 966 974 z "},"+":{"ha":1015,"x_min":136,"x_max":1300,"o":"m 872 895 q 926 1173 922 1147 l 674 1168 q 613 891 662 1116 q 332 886 385 887 l 283 631 q 557 631 307 631 q 500 351 506 380 q 760 349 640 343 q 819 631 771 401 q 1097 632 1046 631 q 1157 895 1142 802 q 872 895 1129 895 m 1021 1017 q 1300 1016 1130 1017 q 1192 511 1262 776 q 918 509 1046 509 q 860 231 891 376 q 353 237 640 221 q 408 509 386 405 q 136 512 306 509 l 231 1005 q 515 1012 382 1009 q 576 1289 543 1142 l 1074 1298 q 1021 1017 1042 1124 z "},",":{"ha":570,"x_min":42,"x_max":708,"o":"m 428 307 q 224 229 279 307 q 179 86 170 151 q 322 20 188 22 q 192 -344 296 -203 q 192 -350 195 -353 q 545 133 486 -146 q 428 307 568 302 m 431 429 q 665 111 708 418 q 177 -510 595 -219 q 54 -325 90 -420 q 185 -100 179 -157 q 62 41 82 -99 q 129 305 42 180 q 431 429 216 429 z "},"-":{"ha":1015,"x_min":173,"x_max":1284,"o":"m 1142 895 q 365 886 783 897 l 319 631 q 1085 632 687 626 q 1142 895 1128 801 m 1284 1016 q 1181 511 1248 777 q 173 512 686 504 l 262 1005 q 1284 1016 783 1019 z "},"­":{"ha":1015,"x_min":173,"x_max":1284,"o":"m 1142 895 q 365 886 783 897 l 319 631 q 1085 632 687 626 q 1142 895 1128 801 m 1284 1016 q 1181 511 1248 777 q 173 512 686 504 l 262 1005 q 1284 1016 783 1019 z "},".":{"ha":541,"x_min":2,"x_max":684,"o":"m 168 116 q 231 -4 146 20 q 393 12 316 -28 q 503 132 463 48 q 471 275 537 222 q 308 266 414 309 q 168 116 201 223 m 50 147 q 264 380 102 315 q 541 375 426 445 q 614 84 684 261 q 450 -96 556 -41 q 166 -113 330 -158 q 50 147 2 -67 z "},"/":{"ha":1450,"x_min":-106,"x_max":1967,"o":"m 1799 1883 q 1493 2011 1693 1948 q 60 -504 494 280 q 315 -616 184 -570 q 1799 1883 1063 677 m 1967 1924 q 370 -764 1168 615 q -106 -553 134 -683 q 1437 2158 388 340 q 1967 1924 1744 2060 z "},":":{"ha":541,"x_min":2,"x_max":801,"o":"m 168 116 q 231 -4 146 20 q 393 12 316 -28 q 503 132 463 48 q 471 275 537 222 q 308 266 414 309 q 168 116 201 223 m 284 667 q 348 547 263 571 q 511 564 433 524 q 620 684 580 600 q 589 826 654 773 q 425 818 531 861 q 284 667 319 774 m 50 147 q 264 380 102 315 q 541 375 426 445 q 614 84 684 261 q 450 -96 556 -41 q 166 -113 330 -158 q 50 147 2 -67 m 166 699 q 381 931 220 867 q 659 926 542 996 q 732 635 801 812 q 567 455 673 510 q 283 439 447 393 q 166 699 119 484 z "},";":{"ha":559,"x_min":42,"x_max":811,"o":"m 294 667 q 358 547 273 571 q 520 564 444 524 q 629 684 589 600 q 598 826 665 773 q 434 818 541 861 q 294 667 328 774 m 417 307 q 222 229 276 307 q 177 86 169 151 q 315 20 186 22 q 186 -345 288 -203 q 184 -349 189 -354 q 526 133 466 -146 q 417 307 550 302 m 176 699 q 390 931 229 867 q 668 926 551 996 q 741 635 811 812 q 576 455 682 510 q 293 439 457 393 q 176 699 130 484 m 419 429 q 646 111 690 418 q 169 -511 575 -218 q 50 -324 83 -419 q 178 -100 171 -157 q 60 41 78 -99 q 127 305 42 180 q 419 429 212 429 z "},";":{"ha":559,"x_min":42,"x_max":811,"o":"m 294 667 q 358 547 273 571 q 520 564 444 524 q 629 684 589 600 q 598 826 665 773 q 434 818 541 861 q 294 667 328 774 m 417 307 q 222 229 276 307 q 177 86 169 151 q 315 20 186 22 q 186 -345 288 -203 q 184 -349 189 -354 q 526 133 466 -146 q 417 307 550 302 m 176 699 q 390 931 229 867 q 668 926 551 996 q 741 635 811 812 q 576 455 682 510 q 293 439 457 393 q 176 699 130 484 m 419 429 q 646 111 690 418 q 169 -511 575 -218 q 50 -324 83 -419 q 178 -100 171 -157 q 60 41 78 -99 q 127 305 42 180 q 419 429 212 429 z "},"<":{"ha":1447,"x_min":95,"x_max":1742,"o":"m 1587 892 q 1611 1206 1600 1019 q 303 749 1217 1113 q 239 439 286 627 q 1276 50 809 221 l 1451 349 q 586 645 1254 392 q 1587 892 1249 852 m 1697 782 q 960 634 1274 732 q 1640 433 1289 510 l 1329 -100 q 95 363 766 107 q 193 836 166 650 q 1742 1362 1180 1230 q 1697 782 1722 1009 z "},"=":{"ha":1019,"x_min":77,"x_max":1372,"o":"m 1229 1213 q 404 1204 848 1215 l 355 949 q 1169 950 746 944 q 1229 1213 1214 1120 m 1097 613 q 272 604 716 615 l 224 349 q 1038 350 614 344 q 1097 613 1082 519 m 1372 1334 q 1263 829 1334 1094 q 208 830 746 822 l 302 1323 q 1372 1334 847 1337 m 1240 734 q 1132 229 1202 494 q 77 230 614 222 l 171 723 q 1240 734 715 737 z "},">":{"ha":1447,"x_min":62,"x_max":1710,"o":"m 217 366 q 193 52 203 239 q 1501 509 586 145 q 1565 819 1517 631 q 528 1208 996 1037 l 354 909 q 1218 613 551 866 q 217 366 555 406 m 106 476 q 844 624 530 526 q 165 825 516 748 l 473 1358 q 1710 894 1038 1151 q 1613 422 1637 608 q 62 -104 623 28 q 106 476 82 249 z "},"?":{"ha":1376,"x_min":273,"x_max":1794,"o":"m 1322 1624 q 436 1258 825 1791 q 630 1120 457 1239 q 1152 1269 943 1508 q 979 971 1269 1082 q 665 916 829 917 q 551 390 589 601 q 876 387 682 385 q 947 716 888 477 q 1562 1133 1470 845 q 1322 1624 1650 1463 m 470 78 q 542 -35 450 -12 q 718 -20 635 -59 q 830 96 790 16 q 794 230 864 180 q 616 223 729 265 q 470 78 503 181 m 1369 1737 q 1679 1099 1794 1528 q 1048 616 1566 743 q 983 266 1008 454 q 405 273 680 262 q 568 1036 470 627 q 936 1085 807 1039 q 1054 1196 1087 1143 q 654 954 947 1318 q 273 1240 382 1143 q 1369 1737 779 1935 m 352 111 q 571 336 405 275 q 859 334 738 398 q 941 45 1014 223 q 770 -130 880 -77 q 476 -144 648 -188 q 352 111 305 -101 z "},"@":{"ha":1847,"x_min":-311,"x_max":2198,"o":"m 1045 729 q 1046 683 1036 688 q 1122 736 1086 675 q 1157 840 1167 839 q 1045 729 1078 829 m 1152 962 q 1231 681 1350 953 q 1009 566 1147 538 q 927 760 897 616 q 1152 962 985 939 m 1659 1179 q 1393 1212 1583 1223 q 1357 1104 1379 1173 q 891 1051 1113 1219 q 692 774 750 943 q 701 452 641 625 q 852 343 760 343 q 1229 579 1005 345 q 1549 353 1208 244 q 1971 884 1860 506 q 1973 1311 2064 1145 q 880 1529 1654 1940 q 663 -3 -125 849 q 783 129 755 56 q 954 1305 130 751 q 1773 1227 1529 1617 q 1845 1050 1836 1150 q 1756 724 1839 848 q 1651 565 1717 659 q 1544 720 1530 667 q 1689 1127 1592 865 q 1659 1179 1676 1155 m 866 221 q 924 163 894 192 q 642 -160 856 -26 q 817 1634 -311 871 q 2081 1368 1707 2107 q 2087 846 2198 1156 q 1592 239 1961 420 q 1156 331 1237 111 q 866 221 1059 224 z "},"A":{"ha":1543,"x_min":4,"x_max":1670,"o":"m 852 1261 q 170 -15 367 189 q 427 -154 239 -96 q 703 304 532 -38 q 1171 296 831 287 l 1173 -83 q 1544 -22 1206 -87 l 1466 1631 q 663 1457 1058 1619 l 589 1232 l 852 1261 m 1048 781 q 996 686 1057 801 q 1040 689 1000 686 q 1048 781 1047 810 m 653 1116 l 414 1089 l 564 1548 q 1583 1756 1032 1742 l 1670 -123 q 1052 -189 1208 -211 l 1050 171 q 773 172 825 165 q 465 -294 634 -107 q 4 -9 170 -202 q 653 1116 264 258 m 1143 1328 q 1157 576 1169 810 q 807 594 996 562 q 1143 1328 947 854 z "},"B":{"ha":1635,"x_min":213,"x_max":1920,"o":"m 607 1110 q 353 -46 399 260 q 699 -58 578 -59 q 1384 81 1052 -64 q 1522 163 1455 111 q 1676 415 1640 245 q 1416 768 1713 585 q 1742 1253 1785 1023 q 1167 1581 1686 1588 q 428 1344 729 1561 q 374 1035 418 1253 l 607 1110 m 969 987 q 1215 1093 1200 972 q 1180 1136 1221 1114 q 1001 1109 1139 1158 q 969 987 975 1037 m 851 328 q 1183 465 1154 295 q 1126 515 1188 503 q 884 496 1020 539 q 851 328 858 385 m 213 856 q 313 1412 297 1272 q 1164 1703 687 1682 q 1862 1274 1790 1712 q 1639 773 1920 968 q 1800 408 1851 643 q 1595 66 1749 172 q 1432 -32 1518 5 q 698 -180 1076 -186 q 213 -160 575 -181 q 437 927 279 283 l 213 856 m 834 873 q 906 1206 854 1064 q 1258 1232 1150 1291 q 1335 1069 1365 1173 q 834 873 1307 844 m 715 219 q 781 591 738 407 q 1151 634 1015 665 q 1304 447 1324 600 q 715 219 1255 161 z "},"C":{"ha":1246,"x_min":83,"x_max":1670,"o":"m 1258 298 q 729 522 814 248 q 851 1005 644 795 q 1444 1180 1058 1215 l 1523 1558 q 387 994 770 1646 q 291 339 213 630 q 1187 -35 464 -122 l 1258 298 m 1413 439 l 1288 -146 q 175 301 383 -255 q 279 1051 83 642 q 1670 1664 705 1776 l 1541 1048 q 943 925 1105 1088 q 841 571 782 761 q 1413 439 900 381 z "},"D":{"ha":1678,"x_min":248,"x_max":2006,"o":"m 434 1379 q 395 1103 394 1112 l 636 1209 q 387 -25 436 269 q 881 -12 500 -54 q 1489 242 1261 31 q 1791 751 1716 454 q 1696 1394 1875 1198 q 1198 1586 1518 1589 q 434 1379 756 1590 m 923 456 q 1196 550 1064 460 q 1333 815 1318 635 q 1048 1116 1358 1167 q 923 456 992 796 m 321 1451 q 1198 1708 720 1712 q 1789 1474 1571 1711 q 1910 726 2006 1236 q 1570 152 1825 389 q 903 -132 1315 -85 q 248 -116 491 -178 q 467 1002 316 292 l 284 921 q 321 1451 271 1118 m 773 330 q 943 1222 872 819 q 1455 806 1492 1312 q 1265 450 1435 569 q 773 330 1103 339 z "},"E":{"ha":1578,"x_min":169,"x_max":2036,"o":"m 974 1227 q 1655 1251 1225 1254 q 1865 1620 1866 1617 q 460 1476 1274 1653 l 412 1174 l 595 1192 q 318 -53 442 551 q 1394 -43 1128 -59 q 1443 283 1418 51 q 774 283 1190 281 l 846 623 q 1313 643 1219 635 l 1356 876 l 898 861 l 974 1227 m 1076 1115 l 1049 988 l 1503 1002 l 1416 529 q 946 504 1226 513 l 925 405 q 1579 407 1190 404 q 1490 -160 1539 29 q 169 -174 1131 -181 q 437 1053 323 576 l 267 1037 l 353 1578 q 2036 1737 1264 1776 q 1725 1128 1993 1594 q 1076 1115 1232 1132 z "},"F":{"ha":1557,"x_min":174,"x_max":2102,"o":"m 1908 1615 q 467 1475 1303 1626 q 424 1185 444 1312 l 663 1209 q 336 -85 498 367 q 665 -129 468 -115 q 895 551 770 61 q 1270 566 1131 563 q 1400 873 1373 781 q 962 846 1232 869 l 1027 1219 q 1731 1244 1434 1251 q 1908 1615 1893 1519 m 2102 1734 q 1799 1120 2010 1477 q 1132 1105 1436 1129 l 1110 981 q 1565 1000 1225 991 q 1347 445 1487 737 q 991 433 1135 441 q 734 -256 884 16 q 174 -173 450 -235 q 511 1071 380 399 l 277 1046 q 358 1579 323 1329 q 2102 1734 1293 1748 z "},"G":{"ha":1510,"x_min":62,"x_max":1887,"o":"m 1077 39 q 998 -199 1018 -141 q 1335 -225 1097 -231 q 1543 713 1495 171 q 1181 715 1522 711 q 1133 418 1176 629 q 863 331 1122 281 q 753 871 592 475 q 1234 1179 889 1109 q 1662 1171 1560 1206 q 1750 1577 1718 1340 q 650 1312 1108 1691 q 286 369 193 857 q 1077 39 428 -186 m 895 -124 q 166 342 317 -246 q 568 1403 62 897 q 1887 1677 1074 1821 q 1740 1015 1837 1313 q 1251 1058 1545 1082 q 863 819 968 1000 q 904 448 747 531 q 1012 435 1011 427 q 1065 838 1055 646 q 1678 856 1514 833 q 1418 -346 1615 142 q 840 -278 1080 -353 q 895 -124 903 -102 z "},"H":{"ha":1740,"x_min":133,"x_max":2112,"o":"m 1133 1596 q 510 1503 815 1606 l 460 1203 q 633 1210 491 1201 q 303 -37 426 220 q 701 -119 448 -84 q 897 502 793 83 l 1310 524 q 1209 -98 1211 66 q 1666 -25 1430 -87 q 1961 1581 1687 351 q 1547 1581 1660 1594 q 1392 913 1425 1070 l 977 867 q 1133 1596 1114 1489 m 1277 1712 q 1133 1007 1234 1465 l 1291 1025 q 1449 1694 1306 1097 q 2112 1696 1657 1716 q 1784 -120 1808 334 q 1085 -225 1449 -208 q 1158 393 1090 80 l 994 385 q 775 -252 909 43 q 133 -110 420 -203 q 480 1078 310 259 q 317 1088 492 1079 l 402 1595 q 1277 1712 797 1729 z "},"I":{"ha":854,"x_min":90,"x_max":1210,"o":"m 1057 1549 q 559 1537 720 1579 q 231 -49 309 497 q 690 -40 483 -50 q 1057 1549 854 715 m 1210 1657 q 789 -158 972 688 q 90 -170 486 -172 q 458 1637 189 520 q 1210 1657 823 1710 z "},"J":{"ha":1594,"x_min":115,"x_max":1864,"o":"m 1295 1266 q 1086 448 1246 532 q 803 339 975 347 q 616 686 517 361 q 702 881 660 836 q 456 1006 622 946 q 298 700 393 962 q 239 351 237 500 q 311 114 251 214 q 458 -3 349 48 q 770 -43 583 -49 q 1202 96 1000 -31 q 1691 956 1611 351 q 1740 1589 1735 1373 q 1147 1537 1548 1585 q 1098 1234 1116 1352 l 1295 1266 m 952 1088 q 1043 1649 995 1371 q 1864 1714 1540 1707 q 1812 941 1858 1364 q 1267 -7 1724 278 q 776 -165 1038 -151 q 410 -116 563 -172 q 206 52 262 -45 q 117 344 132 174 q 182 739 115 517 q 438 1143 292 1039 q 880 893 683 1053 q 732 651 769 774 q 804 461 678 471 q 1015 549 925 467 q 1163 1121 1128 608 l 952 1088 z "},"K":{"ha":1586,"x_min":147,"x_max":1908,"o":"m 1059 1598 q 463 1519 749 1617 l 403 1233 q 576 1242 435 1237 q 288 -15 381 417 q 687 -117 460 -90 q 851 557 711 35 q 1195 -71 1105 60 q 1552 184 1347 10 q 1114 804 1345 414 q 1739 1230 1463 1036 l 1580 1461 q 928 1040 1380 1307 q 1059 1598 1057 1576 m 1190 1712 q 1114 1292 1178 1557 q 1608 1636 1312 1409 l 1908 1200 q 1278 766 1531 936 q 1728 172 1443 487 q 1156 -230 1415 -92 q 887 219 1000 -2 q 789 -253 831 9 q 147 -87 428 -209 q 420 1114 262 444 q 249 1090 446 1115 l 357 1613 q 1190 1712 732 1741 z "},"L":{"ha":1368,"x_min":132,"x_max":1549,"o":"m 755 292 q 1040 1603 1031 1559 q 466 1507 758 1617 l 406 1217 q 564 1225 427 1220 q 284 -61 480 788 q 1265 -51 854 -79 q 1385 301 1330 112 q 755 292 1135 301 m 907 418 q 1549 423 1133 423 q 1350 -168 1446 71 q 132 -178 856 -201 q 415 1097 361 814 q 251 1072 437 1098 l 360 1598 q 1187 1718 738 1741 q 907 418 1151 1535 z "},"M":{"ha":2026,"x_min":102,"x_max":2279,"o":"m 599 1156 l 258 -20 l 660 -92 q 929 888 731 190 q 1193 456 1143 556 l 1670 896 q 1533 -105 1571 190 q 1980 -12 1834 -63 q 2146 1573 2000 260 q 1706 1583 2128 1575 q 1364 1154 1584 1434 q 1200 1610 1265 1458 q 463 1476 974 1624 l 409 1156 l 599 1156 m 264 1034 l 355 1573 q 1282 1727 960 1748 q 1409 1410 1380 1501 q 1649 1706 1488 1510 q 2279 1672 2140 1697 q 2096 -100 2121 250 q 1392 -248 1863 -182 q 1501 574 1449 206 l 1156 257 q 973 595 1037 495 q 750 -232 849 159 l 102 -116 l 436 1034 l 264 1034 z "},"N":{"ha":1786,"x_min":203,"x_max":2212,"o":"m 410 1179 l 617 1177 q 345 -31 441 359 q 731 -90 401 -58 l 926 829 q 1423 -99 1271 220 q 1733 -35 1548 -99 q 2070 1546 1881 660 q 1658 1580 1967 1579 q 1502 764 1572 1212 q 1077 1590 1154 1353 l 458 1480 l 410 1179 m 351 1586 l 1160 1728 q 1434 1119 1266 1403 q 1561 1702 1452 1235 q 2212 1629 1986 1702 q 1839 -127 2000 634 q 1345 -221 1569 -221 q 979 489 1162 163 l 828 -221 q 203 -97 367 -178 q 467 1057 322 387 l 267 1059 l 351 1586 z "},"O":{"ha":1734,"x_min":119,"x_max":1999,"o":"m 1713 1434 q 730 1364 1280 1785 q 412 987 553 1232 q 267 545 294 761 q 309 192 244 351 q 768 -72 452 -71 q 1841 778 1577 -94 q 1868 1070 1876 922 q 1713 1434 1847 1304 m 806 614 q 966 485 821 488 q 1219 576 1109 477 q 1318 825 1343 703 q 1162 966 1286 968 q 859 775 980 951 q 806 614 804 687 m 1794 1525 q 1990 1078 1965 1360 q 1959 745 1999 911 q 766 -194 1666 -219 q 198 140 378 -193 q 146 559 119 334 q 304 1045 176 798 q 656 1462 459 1314 q 1794 1525 1282 1940 m 684 604 q 758 843 680 721 q 1155 1088 912 1067 q 1438 850 1382 1093 q 1303 488 1475 664 q 962 363 1154 352 q 684 604 712 368 z "},"P":{"ha":1572,"x_min":202,"x_max":1933,"o":"m 395 1072 l 604 1123 q 352 -51 520 581 q 735 -89 415 -66 q 872 459 773 7 q 1168 502 1035 481 q 1760 1090 1653 578 q 1499 1598 1802 1503 q 437 1369 1086 1687 l 395 1072 m 1079 865 q 1314 1005 1280 872 q 1291 1127 1334 1090 q 1133 1140 1246 1177 q 1079 865 1099 983 m 326 1450 q 1531 1716 1070 1815 q 1881 1072 1933 1590 q 1187 381 1755 471 q 973 349 1053 360 q 816 -218 890 -28 q 202 -140 396 -186 q 455 960 400 606 l 249 909 l 326 1450 m 932 739 q 1027 1234 979 1006 q 1376 1215 1283 1318 q 1433 977 1470 1135 q 932 739 1375 753 z "},"Q":{"ha":1744,"x_min":125,"x_max":2002,"o":"m 1475 -78 q 1695 113 1577 -9 l 1573 271 q 1845 795 1761 520 q 1871 1082 1879 937 q 1715 1437 1849 1310 q 731 1369 1280 1781 q 415 999 554 1240 q 271 567 298 778 q 315 223 250 378 q 776 -35 459 -34 q 1308 66 1044 -43 l 1475 -78 m 811 635 q 972 510 826 513 q 1224 599 1115 502 q 1322 841 1347 723 q 1165 979 1289 981 q 863 793 983 964 q 811 635 808 707 m 1284 -75 q 774 -157 1067 -165 q 205 170 387 -156 q 151 582 125 361 q 308 1059 180 816 q 658 1467 462 1322 q 1795 1529 1282 1935 q 1993 1091 1966 1367 q 1963 763 2002 926 q 1726 272 1871 463 l 1856 104 q 1466 -231 1655 -102 l 1284 -75 m 689 626 q 762 861 685 741 q 1158 1101 916 1081 q 1442 868 1385 1106 q 1308 511 1480 684 q 967 388 1158 377 q 689 626 718 393 z "},"R":{"ha":1570,"x_min":122,"x_max":1959,"o":"m 618 1191 q 288 -90 429 201 q 637 -170 376 -129 q 859 553 694 -84 l 1224 -117 l 1569 127 q 1280 556 1483 252 q 1817 1325 1834 924 q 1688 1521 1808 1416 q 1360 1634 1569 1627 q 452 1410 983 1659 q 411 1112 407 1140 l 618 1191 m 1097 1167 q 1046 884 1065 1008 q 1307 1084 1280 944 q 1256 1183 1318 1156 q 1097 1167 1208 1200 m 314 945 q 342 1493 283 1140 q 1366 1756 960 1782 q 1771 1612 1617 1748 q 1940 1335 1925 1476 q 1449 522 1959 860 q 1737 98 1584 320 l 1183 -296 l 900 224 q 696 -303 807 -134 q 122 -150 340 -247 q 457 1000 313 240 l 314 945 m 992 1263 q 1301 1297 1211 1327 q 1428 1063 1454 1229 q 899 720 1385 845 q 992 1263 945 1029 z "},"S":{"ha":1331,"x_min":85,"x_max":1634,"o":"m 261 -47 q 790 -74 477 -131 q 1420 450 1274 43 q 1403 791 1470 604 q 1217 901 1358 873 q 927 919 1075 929 q 776 1072 779 909 q 1283 1259 796 1341 l 1460 1597 q 548 1393 938 1777 q 374 862 345 1164 q 483 674 378 772 q 810 587 587 575 q 1054 479 1055 642 q 842 260 1059 326 q 411 271 587 188 q 261 -47 318 77 m 85 -119 q 342 449 207 127 q 811 378 521 313 q 932 477 934 416 q 827 466 932 489 q 400 584 541 450 q 252 852 259 717 q 460 1477 219 1204 q 1634 1666 906 1917 l 1350 1124 q 898 1069 907 1199 q 991 1046 899 1039 q 1261 1017 1083 1053 q 1514 841 1438 982 q 1535 411 1599 606 q 817 -193 1367 -60 q 85 -119 423 -273 z "},"T":{"ha":1559,"x_min":282,"x_max":1988,"o":"m 1841 1596 q 467 1546 1181 1602 q 411 1155 420 1348 q 871 1164 513 1162 l 597 -42 q 982 -138 945 -152 l 1243 1163 q 1708 1160 1594 1172 q 1841 1596 1796 1356 m 1988 1716 q 1784 1028 1913 1319 q 1343 1044 1589 1050 l 1082 -264 q 454 -125 950 -282 l 718 1041 q 282 1025 517 1040 q 368 1662 300 1365 q 1988 1716 1177 1724 z "},"U":{"ha":1721,"x_min":262,"x_max":2072,"o":"m 591 1162 q 433 638 443 794 q 710 -58 395 59 q 1128 -42 913 -107 q 1797 741 1607 125 q 1942 1551 1914 1141 l 1554 1576 q 1324 607 1480 970 q 1070 441 1242 444 q 880 625 918 454 q 971 1178 856 828 q 1114 1588 1087 1529 q 456 1491 872 1617 q 398 1171 412 1296 l 591 1162 m 262 1056 q 353 1587 292 1316 q 1295 1690 861 1742 q 1090 1150 1200 1484 q 1000 645 980 816 q 1075 563 1017 568 q 1214 659 1166 565 q 1447 1705 1362 1002 l 2072 1665 q 1914 706 2036 1120 q 1165 -159 1706 30 q 674 -174 917 -233 q 312 646 267 -24 q 414 1048 323 821 l 262 1056 z "},"V":{"ha":1800,"x_min":271,"x_max":2242,"o":"m 610 1277 q 781 -47 660 669 q 1267 -44 941 -68 q 2057 1559 1476 325 l 1668 1593 q 1102 465 1367 853 q 1017 1599 1040 971 q 446 1474 745 1594 q 410 1235 409 1242 l 610 1277 m 271 1083 q 336 1562 279 1243 q 1135 1724 720 1716 q 1184 802 1162 981 q 1588 1722 1259 911 l 2242 1665 q 1341 -161 1584 269 q 676 -157 937 -190 q 500 1129 538 654 l 271 1083 z "},"W":{"ha":2173,"x_min":283,"x_max":2626,"o":"m 968 644 q 1016 1613 1013 1339 q 460 1490 837 1636 l 422 1227 q 586 1262 469 1243 q 517 -52 553 549 q 878 -45 714 -60 l 1247 588 l 1377 -47 q 1714 -51 1513 -62 q 2444 1571 2022 662 q 2024 1592 2279 1590 l 1615 707 q 1394 1150 1431 1066 l 968 644 m 1114 1006 l 1428 1379 q 1609 986 1541 1118 l 1946 1714 q 2626 1672 2287 1712 q 1796 -169 2134 612 q 1275 -159 1510 -184 l 1192 250 l 952 -160 q 389 -169 717 -182 q 458 1135 431 555 q 283 1108 475 1135 l 349 1578 q 1139 1738 822 1761 q 1114 1006 1135 1335 z "},"X":{"ha":1746,"x_min":56,"x_max":2130,"o":"m 863 1599 q 453 1303 626 1455 q 797 766 589 1141 q 214 229 334 360 q 475 -63 366 26 l 969 456 q 1263 -50 1178 106 q 1687 297 1471 96 l 1322 785 q 1967 1316 1672 1053 q 1701 1586 1884 1432 q 1170 1077 1551 1465 q 863 1599 1023 1307 m 908 1770 q 1190 1272 1128 1369 q 1702 1745 1469 1556 q 2130 1297 1974 1514 q 1492 762 1750 960 l 1851 282 q 1221 -229 1548 1 q 947 255 1072 45 l 486 -230 q 56 237 277 -59 q 642 793 249 447 q 283 1317 488 1072 q 908 1770 553 1554 z "},"Y":{"ha":1695,"x_min":275,"x_max":2093,"o":"m 1104 -88 q 1282 753 1175 236 q 1925 1330 1699 1123 q 1700 1585 1831 1444 q 1180 1082 1477 1376 q 818 1573 953 1379 l 448 1255 q 887 747 694 980 q 707 -83 769 227 q 1104 -88 876 -90 m 1203 -209 q 559 -199 874 -212 q 755 715 650 252 q 275 1267 602 900 l 841 1754 q 1192 1266 1052 1451 q 1706 1757 1392 1464 q 2093 1318 1923 1525 q 1393 688 1780 1032 q 1203 -209 1294 210 z "},"Z":{"ha":1545,"x_min":26,"x_max":1962,"o":"m 175 -44 q 1449 -39 835 -50 q 1566 300 1532 146 q 663 289 1275 302 q 1729 1156 1056 675 q 1816 1568 1798 1461 q 543 1566 1110 1551 q 407 1198 411 1252 q 1367 1209 581 1177 q 249 308 729 784 q 175 -44 220 176 m 26 -165 q 137 369 101 201 q 937 1069 652 879 q 277 1090 576 1055 q 463 1691 291 1280 q 1962 1694 1110 1673 q 1839 1084 1918 1438 q 968 418 1135 582 q 1718 421 1274 425 q 1529 -160 1649 108 q 26 -165 836 -172 z "},"\\":{"ha":1450,"x_min":412,"x_max":1419,"o":"m 925 2007 q 549 1869 709 1947 q 968 -612 774 656 q 1286 -491 1107 -569 q 925 2007 1183 301 m 1025 2162 q 1419 -566 1304 319 q 869 -769 1149 -684 q 412 1938 653 636 q 1025 2162 665 2061 z "},"^":{"ha":947,"x_min":367,"x_max":1407,"o":"m 877 1760 q 1114 1573 1038 1672 l 1242 1724 q 941 1960 1097 1870 q 509 1704 734 1867 l 548 1579 q 877 1760 724 1695 m 870 1624 q 479 1386 782 1587 l 367 1751 q 948 2097 673 1973 q 1407 1731 1173 1967 l 1110 1379 q 870 1624 957 1577 z "},"_":{"ha":1552,"x_min":-31,"x_max":1654,"o":"m 1466 -162 q 1512 54 1494 -58 q 169 47 556 64 q 135 -33 146 10 q 111 -160 124 -75 q 1466 -162 579 -163 m 1559 -284 q -31 -281 579 -286 q 18 3 5 -51 q 98 167 32 58 q 1654 174 555 186 q 1559 -284 1613 -83 z "},"`":{"ha":728,"x_min":288,"x_max":1114,"o":"m 452 1709 q 806 1468 745 1491 l 939 1631 q 581 1872 739 1780 q 452 1709 500 1786 m 288 1679 q 558 2026 404 1860 q 1114 1653 806 1882 l 846 1322 q 288 1679 686 1382 z "},"a":{"ha":1397,"x_min":-10,"x_max":1496,"o":"m 195 -32 q 482 -87 329 -51 q 627 146 524 -18 q 1021 145 784 163 l 1050 -83 q 1354 -42 1185 -56 q 1082 1343 1185 951 l 195 -32 m 1130 1641 q 1496 -152 1305 977 q 946 -230 1202 -177 l 913 31 q 700 31 786 41 q 540 -225 628 -83 q -10 -125 307 -172 l 1130 1641 m 932 674 q 996 357 991 460 q 708 342 882 347 q 932 674 803 494 z "},"b":{"ha":1240,"x_min":-3,"x_max":1499,"o":"m 404 1230 q 144 -37 273 586 q 432 -48 329 -49 q 1023 70 736 -54 q 1141 140 1084 95 q 1271 349 1240 208 q 1040 649 1301 490 q 1326 1057 1363 870 q 801 1299 1250 1305 q 404 1230 543 1280 m 676 847 q 874 928 867 835 q 857 956 877 949 q 696 956 771 975 q 676 847 681 887 m 576 284 q 839 388 817 258 q 796 422 838 413 q 600 408 708 443 q 576 284 581 321 m 298 1321 q 795 1421 517 1400 q 1444 1087 1339 1429 q 1265 654 1499 814 q 1394 342 1439 549 q 1213 41 1349 135 q 1070 -43 1146 -11 q 431 -170 760 -176 q -3 -151 326 -171 q 298 1321 153 610 m 541 734 q 593 1057 560 907 q 889 1074 770 1100 q 996 916 1008 1035 q 541 734 978 705 m 439 176 q 496 503 460 343 q 823 541 703 569 q 961 378 959 512 q 439 176 918 125 z "},"c":{"ha":1172,"x_min":78,"x_max":1453,"o":"m 1103 314 q 677 439 806 248 q 798 813 581 674 q 1222 893 1015 953 l 1307 1305 q 354 828 677 1379 q 273 277 208 521 q 1024 -37 418 -110 l 1103 314 m 1265 475 l 1124 -149 q 157 239 338 -243 q 246 885 78 533 q 1453 1411 613 1509 l 1315 739 q 883 723 1035 820 q 785 497 732 627 q 1265 475 861 385 z "},"d":{"ha":1270,"x_min":38,"x_max":1561,"o":"m 454 1266 q 182 -30 240 224 q 572 -20 228 -42 q 1176 262 899 -8 q 1359 629 1297 380 q 1292 1160 1430 1006 q 838 1324 1153 1313 q 454 1266 636 1325 m 670 444 q 865 511 758 444 q 970 707 960 575 q 760 903 991 937 q 670 444 728 688 m 349 1361 q 840 1447 617 1447 q 1385 1238 1209 1434 q 1478 604 1561 1043 q 1261 175 1407 317 q 578 -142 950 -129 q 38 -117 215 -165 q 349 1361 121 250 m 515 322 q 652 1010 608 711 q 1092 696 1128 1081 q 932 410 1078 506 q 515 322 793 321 z "},"e":{"ha":1207,"x_min":37,"x_max":1514,"o":"m 1360 1280 q 468 1273 616 1279 q 193 -42 318 465 q 1069 -38 857 -39 q 1116 220 1080 7 q 560 219 913 212 l 621 511 q 1008 520 937 515 l 1045 699 l 656 694 l 718 1006 l 1282 1000 q 1360 1280 1321 1104 m 1514 1402 q 1366 877 1438 1069 l 818 883 l 805 818 l 1194 823 l 1110 405 q 720 391 943 393 l 709 338 q 1261 349 912 334 q 1168 -159 1199 -16 q 37 -165 857 -161 q 366 1391 199 491 q 1514 1402 614 1401 z "},"f":{"ha":1080,"x_min":3,"x_max":1452,"o":"m 1308 1340 q 422 1305 666 1342 q 151 -59 256 446 q 452 -48 275 -67 q 548 391 485 120 q 848 403 772 401 q 918 651 915 631 q 593 637 905 651 l 647 956 q 1223 961 1009 969 q 1308 1340 1264 1067 m 1452 1462 q 1306 835 1383 1036 q 751 838 1009 847 l 739 766 q 1061 772 903 773 q 941 283 1034 604 q 646 273 776 279 q 555 -159 604 94 q 3 -172 277 -189 q 318 1414 136 471 q 1452 1462 657 1464 z "},"g":{"ha":1323,"x_min":50,"x_max":1635,"o":"m 942 21 q 855 -282 889 -145 q 1131 -303 937 -308 q 1320 578 1280 123 q 1027 581 1313 577 q 987 334 1023 515 q 743 252 977 208 q 644 728 503 380 q 1063 996 763 935 q 1426 991 1345 1019 q 1498 1322 1471 1128 q 569 1095 959 1417 q 259 294 181 708 q 942 21 375 -192 m 762 -142 q 140 268 271 -245 q 487 1186 50 749 q 1635 1422 925 1548 q 1503 836 1590 1101 q 1080 875 1330 896 q 754 674 842 827 q 784 368 657 435 q 865 350 865 353 q 911 704 902 531 q 1455 720 1305 699 q 1219 -424 1400 98 q 709 -365 919 -430 q 762 -142 772 -111 z "},"h":{"ha":1229,"x_min":17,"x_max":1573,"o":"m 172 -44 q 508 -38 279 -48 q 602 428 533 193 l 916 430 q 837 -21 882 161 q 1144 -27 954 -32 q 1417 1316 1331 983 q 1124 1322 1263 1325 q 982 696 1098 1217 l 656 717 q 774 1301 693 880 q 477 1318 640 1311 q 172 -44 303 483 m 17 -159 q 380 1446 184 510 q 921 1414 647 1433 q 807 829 812 854 l 886 825 q 1029 1443 979 1246 q 1573 1428 1265 1447 q 1246 -146 1450 956 q 685 -130 950 -154 q 777 307 762 183 l 694 306 q 618 -156 654 168 q 17 -159 279 -170 z "},"i":{"ha":762,"x_min":79,"x_max":1056,"o":"m 903 1299 q 494 1289 627 1324 q 220 -35 284 417 q 596 -28 425 -36 q 903 1299 734 604 m 1056 1407 q 696 -144 853 577 q 79 -155 428 -158 q 393 1390 164 440 q 1056 1407 616 1447 z "},"j":{"ha":1369,"x_min":96,"x_max":1607,"o":"m 1120 1295 q 939 363 1125 481 q 693 269 842 275 q 528 572 441 288 q 597 735 565 701 q 393 831 537 785 q 269 580 349 800 q 220 285 218 410 q 279 87 230 170 q 401 -10 311 33 q 664 -43 505 -48 q 1028 74 858 -33 q 1440 801 1373 290 q 1482 1331 1478 1154 q 1120 1295 1329 1327 m 997 1400 q 1607 1456 1318 1449 q 1562 786 1600 1146 q 1093 -29 1487 216 q 669 -165 896 -153 q 354 -123 486 -172 q 174 24 224 -61 q 98 278 111 132 q 153 618 96 428 q 373 965 248 877 q 774 747 597 893 q 645 537 674 639 q 695 391 602 397 q 865 461 792 395 q 997 1400 1002 548 z "},"k":{"ha":1253,"x_min":3,"x_max":1554,"o":"m 709 899 q 799 1335 798 1324 q 466 1309 680 1343 q 149 -58 251 428 q 492 -52 284 -84 q 640 528 505 16 q 1042 -66 774 95 q 1232 216 1103 33 q 872 677 1004 340 q 1391 1043 1144 870 l 1275 1240 q 709 899 1082 1088 m 880 1122 q 1309 1423 1016 1191 l 1554 1008 q 1021 632 1215 770 q 1411 256 1102 426 q 1082 -233 1205 -35 q 661 169 769 -83 q 597 -159 624 -12 q 3 -155 281 -208 q 367 1416 132 455 q 929 1449 675 1467 q 880 1122 919 1308 z "},"l":{"ha":1015,"x_min":9,"x_max":1166,"o":"m 778 1313 q 467 1301 669 1316 q 162 -62 416 1031 q 939 -49 637 -77 q 1020 237 993 84 q 546 224 878 233 l 778 1313 m 928 1431 l 697 351 q 1166 363 875 355 q 1024 -163 1110 50 q 9 -179 640 -199 q 364 1416 296 1055 q 928 1431 666 1438 z "},"m":{"ha":1691,"x_min":-16,"x_max":1772,"o":"m 749 1380 q 165 -47 454 651 l 476 -58 q 770 711 509 69 q 977 404 922 486 l 1335 715 q 1311 -66 1328 66 q 1650 -23 1478 -59 q 1637 1360 1649 115 q 1105 900 1329 1109 q 749 1380 970 1126 m 709 1611 q 1133 1093 1069 1198 q 1756 1615 1249 1201 q 1772 -122 1771 117 q 1172 -194 1493 -181 q 1211 444 1206 75 l 954 220 q 797 452 820 418 q 570 -182 625 31 l -16 -162 q 709 1611 342 697 z "},"n":{"ha":1447,"x_min":31,"x_max":1779,"o":"m 509 1455 q 189 -57 273 288 q 475 -55 321 -49 l 628 753 q 1293 -174 931 367 q 1626 1322 1469 545 q 1290 1301 1494 1308 q 1163 644 1239 1021 q 509 1455 832 1124 m 435 1704 q 1100 950 927 1202 q 1187 1419 1119 1044 q 1779 1462 1485 1430 q 1345 -472 1588 518 q 698 467 832 295 l 575 -181 q 31 -189 322 -171 q 435 1704 153 315 z "},"o":{"ha":1399,"x_min":56,"x_max":1691,"o":"m 1387 1204 q 621 1140 1100 1483 q 375 825 481 1028 q 244 434 269 622 q 344 13 189 190 q 913 -53 500 -165 q 1480 640 1326 60 q 1387 1204 1559 991 m 680 498 q 785 374 685 376 q 979 471 888 368 q 1060 680 1076 578 q 954 791 1038 793 q 723 633 817 779 q 680 498 678 560 m 1478 1287 q 1598 611 1691 1023 q 942 -171 1426 -39 q 257 -74 458 -303 q 123 456 56 156 q 268 883 151 660 q 547 1238 385 1107 q 1478 1287 1112 1642 m 557 494 q 620 699 555 593 q 947 913 747 895 q 1181 701 1139 918 q 1069 389 1206 539 q 780 252 940 242 q 557 494 568 257 z "},"p":{"ha":1158,"x_min":-17,"x_max":1474,"o":"m 420 1280 q 139 -64 270 475 q 459 -55 266 -62 q 557 380 493 62 q 812 416 699 398 q 1310 911 1221 480 q 1092 1305 1343 1226 q 420 1280 739 1381 m 729 729 q 927 842 892 739 q 916 928 942 905 q 775 943 847 974 q 729 729 734 820 m 313 1373 q 1123 1423 732 1507 q 1431 892 1474 1313 q 831 296 1322 373 q 659 270 717 277 q 552 -173 612 34 q -17 -189 269 -184 q 313 1373 151 500 m 599 600 q 677 1032 613 843 q 989 1025 859 1112 q 1045 808 1078 950 q 599 600 980 621 z "},"q":{"ha":1498,"x_min":103,"x_max":1723,"o":"m 1263 -78 q 1441 77 1344 -22 l 1337 210 q 1571 659 1500 425 q 1593 899 1600 778 q 1463 1197 1574 1090 q 634 1138 1097 1485 q 367 825 485 1029 q 246 460 268 639 q 282 173 228 302 q 667 -43 403 -42 q 1121 44 895 -50 l 1263 -78 m 710 522 q 836 425 721 427 q 1041 497 953 418 q 1122 692 1141 597 q 999 800 1095 802 q 753 648 850 789 q 710 522 708 578 m 1098 -97 q 666 -165 918 -172 q 172 119 331 -164 q 125 475 103 284 q 260 885 150 675 q 561 1236 393 1112 q 1543 1289 1099 1640 q 1715 909 1691 1147 q 1689 626 1723 767 q 1491 212 1611 368 l 1603 68 q 1254 -231 1423 -116 l 1098 -97 m 588 512 q 651 715 585 612 q 993 922 783 905 q 1241 718 1191 926 q 1125 409 1273 558 q 831 303 996 294 q 588 512 612 308 z "},"r":{"ha":1280,"x_min":-15,"x_max":1579,"o":"m 530 399 q 758 109 810 404 q 1196 -115 673 -320 l 1242 105 q 1058 254 985 -37 q 908 471 1083 389 q 1356 894 1295 633 q 991 1320 1432 1267 q 414 1278 671 1348 q 129 -71 157 75 q 429 -68 188 -81 q 530 399 439 -21 m 770 924 q 725 732 739 815 q 922 881 901 781 q 893 922 928 917 q 770 924 846 939 m 623 224 q 530 -185 559 -47 q -15 -170 181 -203 q 310 1377 37 99 q 1004 1442 661 1472 q 1475 868 1579 1373 q 1124 465 1407 570 q 1177 229 1210 439 q 1417 342 1171 205 l 1301 -204 q 638 132 511 -515 q 623 224 664 232 m 673 1029 q 924 1041 857 1065 q 1041 857 1072 1019 q 573 564 1005 683 q 673 1029 620 842 z "},"s":{"ha":1154,"x_min":135,"x_max":1385,"o":"m 280 -94 q 678 -79 378 -140 q 1214 366 1089 21 q 1199 652 1256 495 q 1043 743 1162 720 q 793 757 924 766 q 660 898 662 747 q 1089 1069 677 1139 l 1175 1353 q 479 1168 777 1476 q 330 718 307 974 q 421 562 334 644 q 696 489 509 479 q 916 388 917 539 q 727 191 920 250 q 353 176 422 123 q 280 -94 319 48 m 135 -161 q 282 383 201 79 q 696 309 451 254 q 793 387 795 340 q 713 368 793 386 q 339 472 463 355 q 208 708 216 589 q 389 1251 181 1015 q 1327 1433 742 1615 l 1175 931 q 782 894 789 997 q 857 884 782 879 q 1087 859 931 890 q 1310 703 1242 828 q 1329 327 1385 498 q 705 -198 1181 -82 q 135 -161 363 -267 z "},"t":{"ha":1306,"x_min":236,"x_max":1678,"o":"m 1519 1326 q 446 1329 983 1318 q 384 977 414 1135 q 744 976 413 978 l 524 -41 q 842 -36 668 -37 l 1050 967 q 1421 979 1319 983 q 1519 1326 1469 1136 m 1678 1451 q 1509 847 1586 1102 q 1152 853 1318 861 l 942 -158 q 372 -168 670 -159 l 593 855 q 236 846 416 856 q 342 1454 294 1157 q 1678 1451 983 1440 z "},"u":{"ha":1382,"x_min":125,"x_max":1684,"o":"m 802 1322 q 515 1312 684 1325 q 286 522 329 920 q 515 -61 253 36 q 866 -47 686 -102 q 1432 614 1272 93 q 1554 1293 1531 954 l 1237 1314 q 1042 494 1175 804 q 821 350 970 353 q 652 512 686 361 q 718 1007 631 686 q 802 1322 804 1328 m 981 1438 q 838 982 920 1289 q 772 532 755 676 q 825 472 785 475 q 932 546 895 473 q 1130 1443 1056 836 l 1684 1407 q 1548 578 1652 932 q 904 -164 1370 -2 q 479 -178 690 -229 q 164 532 125 -47 q 435 1428 210 954 q 981 1438 681 1447 z "},"v":{"ha":1449,"x_min":292,"x_max":1844,"o":"m 422 1291 q 587 -50 486 554 q 987 -45 716 -66 q 1653 1303 1135 275 l 1363 1326 q 829 174 1219 950 q 759 1336 760 778 q 422 1291 559 1320 m 292 1388 q 880 1469 541 1441 q 904 595 882 785 q 1282 1455 1107 999 l 1844 1412 q 1068 -162 1246 222 q 481 -159 713 -188 q 292 1388 364 539 z "},"w":{"ha":1737,"x_min":254,"x_max":2117,"o":"m 1932 1278 q 1674 1322 1827 1300 l 1255 635 q 1073 958 1104 887 l 759 639 q 731 1337 728 1183 q 414 1304 474 1323 q 425 -69 376 578 q 943 490 621 146 q 1147 -77 1152 -90 q 1932 1278 1544 550 m 2117 1364 q 1125 -339 1650 489 q 896 261 1038 -135 q 323 -361 711 63 q 296 1396 254 577 q 856 1466 452 1444 q 865 921 850 1185 l 1112 1173 q 1256 871 1213 943 l 1612 1453 q 2117 1364 1848 1421 z "},"x":{"ha":1500,"x_min":45,"x_max":1839,"o":"m 743 1332 q 406 1088 548 1213 q 697 631 517 955 q 203 175 301 283 q 415 -64 328 8 l 837 380 q 1087 -52 1019 74 q 1437 235 1258 68 l 1126 650 q 1675 1101 1429 882 q 1458 1321 1609 1194 q 1005 886 1335 1221 q 743 1332 876 1089 m 789 1503 q 1026 1082 981 1152 q 1459 1480 1253 1312 q 1839 1083 1699 1278 q 1297 627 1507 789 l 1600 220 q 1046 -230 1335 -27 q 814 179 912 13 l 425 -229 q 45 183 239 -77 q 543 658 215 370 q 236 1102 416 886 q 789 1503 475 1312 z "},"y":{"ha":1392,"x_min":127,"x_max":1754,"o":"m 573 -116 q 1588 1082 855 178 q 1343 1282 1475 1185 q 1013 852 1242 1165 q 755 1293 816 1172 l 425 1072 q 769 544 564 864 q 330 5 498 182 q 573 -116 422 -41 m 599 -265 q 127 -32 368 -151 q 621 549 405 260 q 255 1105 462 798 l 802 1471 q 1021 1070 922 1232 q 1324 1448 1146 1241 q 1754 1095 1553 1280 q 599 -265 947 96 z "},"z":{"ha":1400,"x_min":16,"x_max":1849,"o":"m 241 -33 q 1381 -24 796 -37 q 1440 272 1423 128 q 823 253 1196 271 q 1605 1290 1128 641 q 475 1284 1020 1278 q 388 954 426 1148 q 924 962 495 951 q 241 -33 683 642 m 16 -154 q 675 833 583 713 q 241 838 494 829 q 389 1408 308 1181 q 1849 1417 1019 1400 q 1084 387 1225 566 q 1577 395 1193 393 q 1474 -143 1544 105 q 16 -154 798 -159 z "},"|":{"ha":623,"x_min":-118,"x_max":1149,"o":"m 33 -534 q 471 -522 204 -551 q 998 1976 743 827 q 593 1970 799 1984 q 33 -534 366 859 m -118 -641 q 492 2085 247 884 q 1149 2091 797 2106 q 573 -633 863 801 q -118 -641 205 -673 z "},"~":{"ha":1060,"x_min":394,"x_max":1519,"o":"m 1397 2052 q 1254 2091 1245 2081 q 1265 1904 1293 2006 q 1172 1823 1232 1830 q 1010 1982 1051 1809 q 856 2060 987 2058 q 644 1959 724 2057 q 576 1699 532 1811 q 709 1658 724 1680 q 711 1879 621 1773 q 908 1794 845 1992 q 1065 1697 949 1706 q 1266 1742 1182 1690 q 1397 2052 1397 1832 m 1519 2153 q 1333 1640 1519 1768 q 1057 1575 1213 1565 q 794 1751 867 1589 q 797 1792 784 1782 q 860 1661 777 1769 q 490 1588 782 1550 q 549 2035 394 1830 q 856 2182 666 2178 q 1128 2015 1077 2178 q 1157 1944 1145 1942 q 1150 1946 1149 1943 q 1111 2110 1164 1995 q 1519 2153 1198 2216 z "},"¡":{"ha":622,"x_min":60,"x_max":1092,"o":"m 214 -9 q 648 -3 385 -20 q 848 1117 802 783 q 926 1095 926 1093 q 505 1095 671 1101 q 214 -9 419 792 m 926 1449 q 862 1569 947 1546 q 699 1553 777 1593 q 591 1434 630 1517 q 623 1291 555 1343 q 785 1299 679 1256 q 926 1449 892 1342 m 60 -122 q 412 1213 301 823 q 827 1220 670 1223 q 984 1202 832 1249 q 750 -118 922 763 q 60 -122 385 -142 m 1044 1418 q 829 1185 991 1250 q 553 1190 668 1120 q 479 1481 409 1304 q 644 1662 536 1607 q 927 1678 763 1723 q 1044 1418 1092 1632 z "},"¦":{"ha":602,"x_min":-99,"x_max":1059,"o":"m 710 735 q 908 1649 812 1221 q 503 1644 707 1655 q 312 735 414 1210 l 710 735 m 252 457 q 52 -443 158 22 q 469 -431 203 -454 q 651 457 564 42 l 252 457 m 161 613 q 401 1761 295 1234 q 1059 1765 706 1777 q 809 613 931 1196 l 161 613 m 802 579 q 570 -545 683 18 q -99 -555 205 -576 q 154 579 39 50 l 802 579 z "},"§":{"ha":1185,"x_min":50,"x_max":1500,"o":"m 356 456 q 644 346 470 327 q 860 235 871 390 q 662 46 855 99 q 288 43 355 -12 q 199 -227 246 -85 q 592 -224 292 -275 q 1154 207 1008 -138 q 1157 496 1203 336 q 1121 552 1155 501 q 1319 823 1260 684 q 1323 1112 1369 952 q 1186 1204 1293 1180 q 1013 1231 1090 1227 q 916 1234 967 1235 q 803 1377 798 1259 q 1240 1533 837 1617 l 1343 1817 q 642 1653 960 1954 q 466 1204 459 1463 q 519 1068 467 1162 q 477 1038 477 1037 q 300 587 293 846 q 356 456 300 526 m 741 771 q 800 781 750 772 q 925 814 922 819 q 760 748 775 841 q 741 771 759 742 m 262 377 q 178 585 178 482 q 391 1123 170 894 q 360 1102 397 1129 q 344 1201 345 1129 q 557 1740 336 1510 q 1500 1890 930 2094 l 1318 1392 q 925 1366 940 1471 q 926 1356 924 1356 q 1021 1353 970 1357 q 1215 1324 1108 1348 q 1438 1154 1378 1284 q 1432 777 1498 945 q 1280 534 1363 613 q 1272 538 1262 561 q 1266 161 1332 330 q 615 -344 1095 -243 q 50 -287 271 -402 q 229 254 131 -47 q 635 165 389 119 q 738 242 736 193 q 663 225 738 239 q 262 377 421 198 m 677 644 q 637 762 635 709 q 1004 924 675 983 q 829 663 1100 747 q 677 644 766 651 z "},"¨":{"ha":1044,"x_min":370,"x_max":1478,"o":"m 496 1630 q 600 1552 505 1554 q 778 1614 702 1546 q 847 1779 863 1700 q 747 1870 825 1871 q 532 1736 618 1860 q 496 1630 494 1676 m 978 1630 q 1082 1552 987 1554 q 1260 1614 1184 1546 q 1329 1779 1345 1700 q 1230 1870 1307 1871 q 1015 1736 1100 1860 q 978 1630 976 1676 m 374 1620 q 431 1804 370 1710 q 741 1992 550 1976 q 966 1806 921 1996 q 862 1526 996 1661 q 595 1430 745 1421 q 374 1620 396 1434 m 856 1620 q 913 1804 852 1710 q 1223 1992 1032 1976 q 1449 1806 1403 1996 q 1344 1526 1478 1661 q 1077 1430 1227 1421 q 856 1620 878 1434 z "},"©":{"ha":1785,"x_min":147,"x_max":2075,"o":"m 442 137 q 1458 205 892 -218 q 1783 585 1639 340 q 1927 1024 1901 810 q 1883 1381 1950 1219 q 1400 1653 1731 1651 q 304 801 572 1674 q 278 508 270 655 q 442 137 300 271 m 1471 1242 q 979 1260 1276 1423 q 622 864 699 1119 q 741 411 551 559 q 1242 366 1000 220 q 1567 959 1560 580 q 1471 1242 1563 1141 m 1218 659 q 960 729 1037 617 q 1027 938 907 861 q 1282 975 1147 1014 l 1339 1249 q 745 952 947 1295 q 695 612 655 763 q 1165 425 783 379 l 1218 659 m 362 45 q 157 498 183 214 q 187 833 147 666 q 1402 1775 482 1799 q 1993 1434 1802 1773 q 2049 1009 2075 1236 q 1889 526 2020 773 q 1531 108 1732 257 q 362 45 890 -372 m 1558 1327 q 1689 959 1683 1190 q 1308 263 1682 515 q 667 313 993 73 q 504 895 415 511 q 922 1369 597 1204 q 1558 1327 1294 1573 m 1380 820 l 1265 313 q 579 575 702 246 q 637 1009 526 775 q 1486 1354 882 1425 l 1375 820 q 1112 847 1166 881 q 1068 787 1058 812 q 1380 820 1090 754 z "},"®":{"ha":1785,"x_min":147,"x_max":2075,"o":"m 442 137 q 1458 205 892 -218 q 1783 585 1639 340 q 1927 1024 1901 810 q 1883 1381 1950 1219 q 1400 1653 1731 1651 q 304 801 572 1674 q 278 508 270 655 q 442 137 300 271 m 672 870 q 818 318 573 488 q 1336 441 1014 203 q 1604 949 1586 633 q 1371 1291 1598 1188 q 862 1193 1122 1417 q 672 870 732 1067 m 930 1032 q 800 469 814 537 q 970 464 871 463 q 1029 734 982 520 l 1183 455 l 1340 517 q 1220 743 1296 587 q 1474 1074 1481 907 q 1411 1160 1467 1116 q 1274 1216 1354 1204 q 887 1182 1101 1230 q 844 1019 866 1100 l 930 1032 m 1197 945 q 1201 981 1194 933 l 1128 960 q 1167 981 1166 977 q 1192 937 1160 941 q 1197 945 1177 941 m 362 45 q 157 498 183 214 q 187 833 147 666 q 1402 1775 482 1799 q 1993 1434 1802 1773 q 2049 1009 2075 1236 q 1889 526 2020 773 q 1531 108 1732 257 q 362 45 890 -372 m 555 903 q 780 1284 624 1134 q 1424 1400 1105 1564 q 1726 946 1718 1268 q 1410 344 1704 570 q 752 215 1021 57 q 555 903 433 436 m 676 873 q 787 1285 748 1131 q 1287 1337 1093 1354 q 1486 1257 1402 1321 q 1596 1087 1579 1184 q 1378 699 1607 842 q 1521 458 1402 647 l 1128 302 l 1078 392 q 1068 342 1101 494 q 652 359 866 341 q 771 886 695 564 l 676 873 m 1100 1050 q 1222 1055 1186 1067 q 1287 956 1302 1042 q 1170 844 1272 890 l 1050 810 q 1100 1050 1074 960 z "},"°":{"ha":585,"x_min":300,"x_max":974,"o":"m 817 1628 q 560 1605 707 1714 q 472 1501 511 1569 q 430 1377 438 1436 q 439 1293 425 1329 q 545 1237 471 1238 q 843 1470 770 1231 q 849 1546 851 1508 q 817 1628 844 1602 m 589 1409 q 612 1396 591 1396 q 673 1418 646 1393 q 698 1471 703 1447 q 676 1491 693 1491 q 602 1443 633 1487 q 589 1409 589 1423 m 897 1720 q 971 1556 961 1659 q 961 1438 974 1497 q 543 1115 860 1106 q 330 1240 399 1116 q 309 1392 300 1311 q 365 1560 320 1474 q 487 1702 418 1651 q 897 1720 709 1869 m 467 1400 q 502 1512 465 1459 q 670 1613 565 1605 q 817 1498 788 1616 q 758 1329 836 1408 q 607 1274 688 1268 q 467 1400 484 1276 z "},"±":{"ha":1021,"x_min":13,"x_max":1341,"o":"m 1034 313 q 208 303 652 315 l 160 49 q 974 50 551 43 q 1034 313 1019 219 m 913 1057 q 967 1336 962 1310 l 715 1331 q 655 1054 703 1278 q 373 1048 427 1050 l 325 794 q 599 793 347 794 q 541 513 547 543 q 801 512 682 506 q 860 793 812 564 q 1139 795 1086 794 q 1198 1058 1183 964 q 913 1057 1170 1058 m 1177 433 q 1068 -71 1139 193 q 13 -71 551 -79 l 107 422 q 1177 433 652 437 m 1062 1179 q 1341 1179 1171 1180 q 1233 674 1303 939 q 960 671 1087 672 q 901 394 932 538 q 393 399 681 384 q 449 671 427 568 q 178 675 347 672 l 272 1168 q 555 1175 423 1172 q 618 1452 584 1305 l 1115 1461 q 1062 1179 1082 1286 z "},"´":{"ha":728,"x_min":326,"x_max":1149,"o":"m 533 1525 q 1010 1780 600 1547 q 961 1923 994 1857 q 477 1669 763 1831 l 533 1525 m 461 1373 l 326 1723 q 1017 2083 707 1940 q 1149 1717 1111 1898 q 461 1373 649 1434 z "},"µ":{"ha":1362,"x_min":-77,"x_max":1673,"o":"m 283 612 q 71 -387 168 103 q 406 -389 254 -397 q 476 -56 430 -277 q 856 -47 693 -97 q 1421 614 1261 93 q 1544 1293 1521 954 l 1227 1314 q 1031 494 1164 804 q 810 350 961 353 q 642 512 675 361 q 707 1007 621 686 q 791 1322 793 1328 q 505 1312 674 1325 q 287 612 355 994 l 283 612 m 184 734 q 425 1428 237 1032 q 972 1438 671 1447 q 827 982 909 1289 q 762 532 745 676 q 814 472 774 475 q 921 546 884 473 q 1119 1443 1046 836 l 1673 1407 q 1538 578 1643 932 q 893 -164 1359 -2 q 571 -199 701 -223 q 505 -506 549 -302 q -77 -501 254 -519 q 186 734 48 129 l 184 734 z "},"¸":{"ha":917,"x_min":-98,"x_max":915,"o":"m 641 -242 q 484 -193 560 -212 q 512 -41 508 -56 q 338 -43 429 -40 q 288 -283 304 -191 q 446 -317 360 -283 q 501 -530 648 -401 q 196 -447 295 -677 q 49 -522 67 -511 q 277 -719 109 -693 q 486 -701 385 -728 q 773 -411 745 -603 q 641 -242 784 -304 m 686 -130 q 895 -426 915 -229 q 524 -817 854 -691 q 263 -840 395 -852 q -98 -469 17 -803 q 257 -280 8 -404 q 425 -434 347 -490 q 400 -430 420 -439 q 142 -404 336 -406 q 240 75 184 -167 q 673 79 427 82 q 624 -102 627 -83 q 686 -130 596 -96 z "},"¿":{"ha":1376,"x_min":33,"x_max":1554,"o":"m 505 -5 q 1390 361 1002 -172 q 1196 500 1369 380 q 674 351 884 112 q 848 648 558 538 q 1162 704 998 703 q 1276 1230 1238 1019 q 951 1233 1145 1235 q 879 903 938 1143 q 264 487 356 774 q 505 -5 177 157 m 1357 1541 q 1284 1655 1377 1631 q 1109 1638 1192 1678 q 996 1523 1037 1604 q 1033 1390 963 1440 q 1211 1396 1098 1354 q 1357 1541 1324 1438 m 458 -118 q 148 521 33 92 q 779 1004 260 876 q 844 1354 818 1166 q 1421 1346 1147 1357 q 1259 583 1357 993 q 890 534 1019 581 q 772 424 740 477 q 1173 665 880 302 q 1554 379 1445 477 q 458 -118 1048 -315 m 1475 1509 q 1255 1283 1421 1344 q 968 1285 1088 1221 q 885 1573 814 1396 q 1057 1748 946 1696 q 1350 1764 1179 1807 q 1475 1509 1522 1721 z "},"À":{"ha":1594,"x_min":4,"x_max":1687,"o":"m 1048 781 q 996 686 1057 801 q 1040 689 1000 686 q 1048 781 1047 810 m 852 1261 q 170 -15 367 189 q 427 -154 239 -96 q 703 304 532 -38 q 1171 296 831 287 l 1173 -83 q 1544 -22 1206 -87 l 1466 1631 q 663 1457 1058 1619 l 589 1232 l 852 1261 m 1026 2030 q 1380 1789 1320 1812 l 1512 1952 q 1154 2193 1312 2102 q 1026 2030 1074 2107 m 1143 1328 q 1157 576 1169 810 q 807 594 996 562 q 1143 1328 947 854 m 653 1116 l 414 1089 l 564 1548 q 1583 1756 1032 1742 l 1670 -123 q 1052 -189 1208 -211 l 1050 171 q 773 172 825 165 q 465 -294 634 -107 q 4 -9 170 -202 q 653 1116 264 258 m 862 2001 q 1131 2348 977 2182 q 1687 1974 1380 2203 l 1419 1644 q 862 2001 1260 1704 z "},"Á":{"ha":1594,"x_min":4,"x_max":1685,"o":"m 1048 781 q 996 686 1057 801 q 1040 689 1000 686 q 1048 781 1047 810 m 852 1261 q 170 -15 367 189 q 427 -154 239 -96 q 703 304 532 -38 q 1171 296 831 287 l 1173 -83 q 1544 -22 1206 -87 l 1466 1631 q 663 1457 1058 1619 l 589 1232 l 852 1261 m 1069 1803 q 1547 2058 1136 1825 q 1497 2201 1530 2135 q 1014 1947 1299 2109 l 1069 1803 m 1143 1328 q 1157 576 1169 810 q 807 594 996 562 q 1143 1328 947 854 m 653 1116 l 414 1089 l 564 1548 q 1583 1756 1032 1742 l 1670 -123 q 1052 -189 1208 -211 l 1050 171 q 773 172 825 165 q 465 -294 634 -107 q 4 -9 170 -202 q 653 1116 264 258 m 997 1651 l 862 2001 q 1553 2362 1244 2218 q 1685 1995 1647 2176 q 997 1651 1185 1712 z "},"Â":{"ha":1594,"x_min":4,"x_max":1798,"o":"m 1048 781 q 996 686 1057 801 q 1040 689 1000 686 q 1048 781 1047 810 m 852 1261 q 170 -15 367 189 q 427 -154 239 -96 q 703 304 532 -38 q 1171 296 831 287 l 1173 -83 q 1544 -22 1206 -87 l 1466 1631 q 663 1457 1058 1619 l 589 1232 l 852 1261 m 1267 2002 q 1505 1815 1429 1914 l 1632 1966 q 1332 2202 1488 2112 q 900 1946 1125 2109 l 939 1821 q 1267 2002 1114 1938 m 1143 1328 q 1157 576 1169 810 q 807 594 996 562 q 1143 1328 947 854 m 653 1116 l 414 1089 l 564 1548 q 1583 1756 1032 1742 l 1670 -123 q 1052 -189 1208 -211 l 1050 171 q 773 172 825 165 q 465 -294 634 -107 q 4 -9 170 -202 q 653 1116 264 258 m 1261 1866 q 869 1628 1173 1829 l 758 1993 q 1339 2339 1064 2215 q 1798 1973 1563 2209 l 1501 1621 q 1261 1866 1348 1819 z "},"Ã":{"ha":1579,"x_min":4,"x_max":1750,"o":"m 1628 2137 q 1484 2176 1476 2166 q 1496 1988 1523 2091 q 1402 1908 1462 1915 q 1240 2067 1282 1894 q 1087 2144 1217 2142 q 876 2044 955 2142 q 807 1784 763 1895 q 939 1743 954 1765 q 941 1964 850 1858 q 1139 1879 1076 2077 q 1296 1782 1179 1790 q 1497 1827 1413 1775 q 1628 2137 1628 1917 m 852 1261 q 170 -15 367 189 q 427 -154 239 -96 q 703 304 532 -38 q 1171 296 831 287 l 1173 -83 q 1544 -22 1206 -87 l 1466 1631 q 663 1457 1058 1619 l 589 1232 l 852 1261 m 1048 781 q 996 686 1057 801 q 1040 689 1000 686 q 1048 781 1047 810 m 1750 2237 q 1563 1725 1750 1852 q 1288 1660 1444 1650 q 1025 1836 1098 1674 q 1027 1877 1015 1866 q 1090 1746 1008 1854 q 720 1673 1012 1634 q 779 2120 625 1914 q 1087 2266 897 2262 q 1358 2100 1308 2263 q 1388 2028 1376 2027 q 1381 2030 1379 2028 q 1341 2195 1394 2080 q 1750 2237 1428 2300 m 653 1116 l 414 1089 l 564 1548 q 1583 1756 1032 1742 l 1670 -123 q 1052 -189 1208 -211 l 1050 171 q 773 172 825 165 q 465 -294 634 -107 q 4 -9 170 -202 q 653 1116 264 258 m 1143 1328 q 1157 576 1169 810 q 807 594 996 562 q 1143 1328 947 854 z "},"Ä":{"ha":1594,"x_min":4,"x_max":1825,"o":"m 1048 781 q 996 686 1057 801 q 1040 689 1000 686 q 1048 781 1047 810 m 852 1261 q 170 -15 367 189 q 427 -154 239 -96 q 703 304 532 -38 q 1171 296 831 287 l 1173 -83 q 1544 -22 1206 -87 l 1466 1631 q 663 1457 1058 1619 l 589 1232 l 852 1261 m 1324 1878 q 1429 1801 1333 1803 q 1607 1862 1531 1794 q 1676 2028 1692 1948 q 1576 2118 1654 2119 q 1361 1984 1447 2108 q 1324 1878 1322 1925 m 842 1878 q 947 1801 851 1803 q 1125 1862 1048 1794 q 1194 2028 1210 1948 q 1094 2118 1172 2119 q 879 1984 964 2108 q 842 1878 840 1925 m 1143 1328 q 1157 576 1169 810 q 807 594 996 562 q 1143 1328 947 854 m 653 1116 l 414 1089 l 564 1548 q 1583 1756 1032 1742 l 1670 -123 q 1052 -189 1208 -211 l 1050 171 q 773 172 825 165 q 465 -294 634 -107 q 4 -9 170 -202 q 653 1116 264 258 m 1202 1868 q 1259 2052 1199 1959 q 1570 2240 1379 2224 q 1795 2053 1750 2244 q 1691 1774 1825 1909 q 1423 1678 1574 1669 q 1202 1868 1225 1682 m 720 1868 q 777 2052 717 1959 q 1088 2240 897 2224 q 1313 2053 1268 2244 q 1209 1774 1343 1909 q 941 1678 1092 1669 q 720 1868 743 1682 z "},"Å":{"ha":1594,"x_min":4,"x_max":1670,"o":"m 1048 781 q 996 686 1057 801 q 1040 689 1000 686 q 1048 781 1047 810 m 1311 1963 q 1304 1958 1305 1960 q 1291 1995 1311 1986 q 1269 1997 1276 2003 q 1269 1999 1269 1997 q 1295 1965 1264 1976 q 1311 1963 1308 1961 m 852 1261 q 170 -15 367 189 q 427 -154 239 -96 q 703 304 532 -38 q 1171 296 831 287 l 1173 -83 q 1544 -22 1206 -87 l 1466 1631 q 663 1457 1058 1619 l 589 1232 l 852 1261 m 1149 2111 q 1068 1841 1004 1979 q 1145 1784 1090 1802 q 1221 1775 1182 1773 q 1512 2030 1469 1797 q 1477 2164 1530 2114 q 1394 2193 1443 2188 q 1270 2178 1337 2198 q 1149 2111 1195 2153 m 1143 1328 q 1157 576 1169 810 q 807 594 996 562 q 1143 1328 947 854 m 1263 2075 q 1332 2081 1299 2090 q 1390 1978 1404 2056 q 1340 1898 1381 1928 q 1238 1885 1287 1860 q 1186 1989 1168 1918 q 1263 2075 1203 2049 m 653 1116 l 414 1089 l 564 1548 q 1583 1756 1032 1742 l 1670 -123 q 1052 -189 1208 -211 l 1050 171 q 773 172 825 165 q 465 -294 634 -107 q 4 -9 170 -202 q 653 1116 264 258 m 1067 2201 q 1233 2295 1131 2260 q 1406 2315 1324 2321 q 1554 2259 1487 2306 q 1632 2006 1664 2156 q 1227 1653 1572 1685 q 1109 1668 1167 1651 q 960 1784 1008 1700 q 1067 2201 855 2009 z "},"Æ":{"ha":2341,"x_min":-5,"x_max":2799,"o":"m 1053 855 q 977 684 1026 808 q 1042 689 994 685 q 1053 855 1057 814 m 1175 -54 q 1631 -38 1179 -53 q 2313 -18 2084 -24 q 2367 311 2325 84 q 1700 296 2114 295 l 1764 630 q 2233 650 2138 642 l 2275 882 l 1805 868 l 1868 1224 l 2542 1229 q 2634 1585 2572 1375 q 1582 1566 1978 1571 q 812 1579 1185 1560 l 681 1301 l 869 1287 l 188 -5 q 517 -48 342 -20 q 705 306 543 7 q 1173 303 911 325 l 1175 -54 m 1137 1254 q 1153 576 1179 813 q 794 555 1001 563 q 1137 1254 916 861 m 1053 -197 l 1051 191 q 781 191 911 203 q 590 -184 652 -47 q -5 -111 327 -140 l 675 1179 l 494 1192 l 736 1705 q 1582 1688 1187 1683 q 2799 1710 1976 1693 q 2641 1108 2690 1345 l 1970 1103 l 1951 994 l 2422 1008 l 2336 536 q 1866 511 2145 519 l 1847 418 q 2515 442 2110 417 q 2422 -137 2445 66 q 1639 -160 2087 -146 q 1053 -197 1190 -175 z "},"Ç":{"ha":1342,"x_min":142,"x_max":1728,"o":"m 762 -9 q 707 -269 720 -199 q 865 -304 779 -270 q 920 -516 1065 -387 q 614 -433 714 -664 q 467 -509 486 -497 q 696 -705 527 -680 q 905 -687 803 -715 q 1192 -397 1162 -589 q 1059 -229 1202 -291 q 905 -180 979 -199 q 929 -38 916 -104 q 1246 -35 1152 -47 l 1343 396 q 838 536 986 316 q 979 967 728 806 q 1479 1057 1231 1128 l 1582 1558 q 446 994 828 1646 q 349 339 271 630 q 762 -9 438 104 m 618 -89 q 233 301 344 7 q 338 1051 142 642 q 1728 1664 764 1776 l 1572 902 q 1065 877 1251 996 q 946 594 879 758 q 1505 557 1041 453 l 1345 -146 q 1027 -164 1157 -169 q 1040 -89 1036 -124 q 1105 -116 1015 -82 q 1313 -412 1333 -215 q 942 -804 1273 -677 q 682 -826 813 -838 q 320 -456 435 -789 q 676 -267 427 -390 q 844 -421 766 -477 q 819 -416 839 -425 q 560 -390 755 -392 q 618 -89 600 -174 z "},"È":{"ha":1567,"x_min":169,"x_max":1993,"o":"m 974 1225 q 1668 1261 1221 1261 q 1865 1620 1866 1617 q 460 1475 1390 1643 l 412 1174 l 595 1192 q 318 -53 442 551 q 1394 -43 1128 -59 q 1443 283 1418 51 q 774 283 1190 281 l 846 623 q 1313 643 1219 635 l 1356 876 l 898 861 l 974 1225 m 969 2030 q 1323 1789 1263 1812 l 1456 1952 q 1098 2193 1257 2102 q 969 2030 1019 2107 m 1076 1117 l 1049 988 l 1503 1002 l 1416 529 q 946 504 1226 513 l 925 405 q 1579 407 1190 404 q 1490 -160 1539 29 q 169 -174 1131 -181 q 437 1053 323 576 l 267 1037 l 353 1579 q 1969 1737 1381 1765 q 1740 1139 1993 1595 q 1076 1117 1230 1139 m 805 2001 q 1075 2348 922 2182 q 1631 1974 1324 2203 l 1362 1644 q 805 2001 1204 1704 z "},"É":{"ha":1567,"x_min":169,"x_max":1993,"o":"m 974 1225 q 1668 1261 1221 1261 q 1865 1620 1866 1617 q 460 1475 1390 1643 l 412 1174 l 595 1192 q 318 -53 442 551 q 1394 -43 1128 -59 q 1443 283 1418 51 q 774 283 1190 281 l 846 623 q 1313 643 1219 635 l 1356 876 l 898 861 l 974 1225 m 1065 1803 q 1544 2058 1133 1825 q 1494 2201 1527 2135 q 1010 1947 1296 2109 l 1065 1803 m 1076 1117 l 1049 988 l 1503 1002 l 1416 529 q 946 504 1226 513 l 925 405 q 1579 407 1190 404 q 1490 -160 1539 29 q 169 -174 1131 -181 q 437 1053 323 576 l 267 1037 l 353 1579 q 1969 1737 1381 1765 q 1740 1139 1993 1595 q 1076 1117 1230 1139 m 994 1651 l 858 2001 q 1550 2362 1240 2218 q 1682 1995 1643 2176 q 994 1651 1182 1712 z "},"Ê":{"ha":1567,"x_min":169,"x_max":1993,"o":"m 974 1225 q 1668 1261 1221 1261 q 1865 1620 1866 1617 q 460 1475 1390 1643 l 412 1174 l 595 1192 q 318 -53 442 551 q 1394 -43 1128 -59 q 1443 283 1418 51 q 774 283 1190 281 l 846 623 q 1313 643 1219 635 l 1356 876 l 898 861 l 974 1225 m 1295 2002 q 1532 1815 1455 1914 l 1659 1966 q 1359 2202 1516 2112 q 927 1946 1153 2109 l 966 1821 q 1295 2002 1141 1938 m 1076 1117 l 1049 988 l 1503 1002 l 1416 529 q 946 504 1226 513 l 925 405 q 1579 407 1190 404 q 1490 -160 1539 29 q 169 -174 1131 -181 q 437 1053 323 576 l 267 1037 l 353 1579 q 1969 1737 1381 1765 q 1740 1139 1993 1595 q 1076 1117 1230 1139 m 1288 1866 q 897 1628 1200 1829 l 785 1993 q 1366 2339 1091 2215 q 1825 1973 1591 2209 l 1528 1621 q 1288 1866 1375 1819 z "},"Ë":{"ha":1567,"x_min":169,"x_max":1993,"o":"m 974 1225 q 1668 1261 1221 1261 q 1865 1620 1866 1617 q 460 1475 1390 1643 l 412 1174 l 595 1192 q 318 -53 442 551 q 1394 -43 1128 -59 q 1443 283 1418 51 q 774 283 1190 281 l 846 623 q 1313 643 1219 635 l 1356 876 l 898 861 l 974 1225 m 1336 1856 q 1440 1779 1345 1781 q 1619 1841 1542 1772 q 1687 2005 1704 1927 q 1588 2096 1666 2098 q 1373 1963 1459 2086 q 1336 1856 1334 1903 m 854 1856 q 958 1779 863 1781 q 1137 1841 1060 1772 q 1205 2005 1221 1927 q 1106 2096 1183 2098 q 890 1963 977 2086 q 854 1856 852 1903 m 1076 1117 l 1049 988 l 1503 1002 l 1416 529 q 946 504 1226 513 l 925 405 q 1579 407 1190 404 q 1490 -160 1539 29 q 169 -174 1131 -181 q 437 1053 323 576 l 267 1037 l 353 1579 q 1969 1737 1381 1765 q 1740 1139 1993 1595 q 1076 1117 1230 1139 m 1214 1847 q 1271 2030 1211 1937 q 1582 2218 1392 2203 q 1807 2032 1761 2222 q 1703 1752 1836 1887 q 1435 1657 1586 1647 q 1214 1847 1236 1660 m 732 1847 q 789 2030 728 1937 q 1100 2218 909 2203 q 1324 2032 1279 2222 q 1221 1752 1354 1887 q 953 1657 1103 1647 q 732 1847 754 1660 z "},"Ì":{"ha":817,"x_min":35,"x_max":1265,"o":"m 1002 1549 q 504 1537 665 1579 q 176 -49 254 497 q 634 -40 427 -50 q 1002 1549 798 715 m 604 2023 q 958 1782 897 1805 l 1090 1945 q 733 2186 891 2094 q 604 2023 652 2100 m 1154 1657 q 733 -158 917 688 q 35 -170 430 -172 q 402 1637 134 520 q 1154 1657 654 1702 m 440 1993 q 710 2340 555 2174 q 1265 1967 958 2196 l 998 1636 q 440 1993 838 1696 z "},"Í":{"ha":819,"x_min":26,"x_max":1249,"o":"m 994 1549 q 496 1537 656 1579 q 168 -49 245 497 q 626 -40 419 -50 q 994 1549 790 715 m 632 1796 q 1110 2050 699 1817 q 1060 2193 1093 2127 q 577 1940 863 2102 l 632 1796 m 1146 1657 q 725 -158 909 688 q 26 -170 422 -172 q 394 1637 125 520 q 1146 1657 646 1702 m 559 1644 l 425 1994 q 1116 2355 807 2210 q 1249 1988 1209 2168 q 559 1644 748 1705 z "},"Î":{"ha":947,"x_min":135,"x_max":1462,"o":"m 1102 1549 q 604 1537 765 1579 q 276 -49 354 497 q 734 -40 528 -50 q 1102 1549 899 715 m 932 1988 q 1169 1801 1093 1900 l 1297 1952 q 997 2188 1152 2098 q 564 1932 790 2096 l 603 1807 q 932 1988 779 1924 m 1255 1657 q 833 -158 1017 688 q 135 -170 530 -172 q 503 1637 234 520 q 1255 1657 755 1702 m 925 1853 q 534 1615 837 1815 l 422 1980 q 1004 2325 728 2201 q 1462 1959 1227 2196 l 1165 1607 q 925 1853 1012 1805 z "},"Ï":{"ha":1044,"x_min":110,"x_max":1514,"o":"m 1077 1549 q 579 1537 740 1579 q 251 -49 329 497 q 709 -40 503 -50 q 1077 1549 873 715 m 1013 1856 q 1117 1779 1021 1781 q 1295 1841 1219 1772 q 1364 2005 1381 1927 q 1264 2096 1342 2098 q 1050 1963 1135 2086 q 1013 1856 1011 1903 m 531 1856 q 635 1779 539 1781 q 813 1841 737 1772 q 882 2005 899 1927 q 782 2096 860 2098 q 568 1963 652 2086 q 531 1856 529 1903 m 1230 1657 q 808 -158 992 688 q 110 -170 505 -172 q 477 1637 209 520 q 1230 1657 730 1702 m 891 1847 q 948 2030 888 1937 q 1258 2218 1067 2203 q 1484 2032 1438 2222 q 1379 1752 1514 1887 q 1112 1657 1263 1647 q 891 1847 912 1660 m 409 1847 q 466 2030 406 1937 q 776 2218 585 2203 q 1002 2032 956 2222 q 897 1752 1031 1887 q 630 1657 781 1647 q 409 1847 430 1660 z "},"Ñ":{"ha":1733,"x_min":203,"x_max":2212,"o":"m 410 1179 l 617 1177 q 345 -31 441 359 q 731 -90 401 -58 l 926 829 q 1423 -99 1271 220 q 1733 -35 1548 -99 q 2070 1546 1881 660 q 1658 1580 1967 1579 q 1502 764 1572 1212 q 1077 1590 1154 1353 l 458 1480 l 410 1179 m 1804 2153 q 1659 2193 1651 2182 q 1672 2005 1699 2107 q 1578 1924 1638 1931 q 1416 2083 1458 1910 q 1262 2161 1392 2159 q 1050 2060 1131 2158 q 983 1801 939 1912 q 1114 1759 1130 1781 q 1116 1980 1026 1874 q 1314 1895 1251 2093 q 1472 1799 1355 1807 q 1672 1843 1588 1791 q 1804 2153 1803 1933 m 351 1586 l 1160 1728 q 1434 1119 1266 1403 q 1561 1702 1452 1235 q 2212 1629 1986 1702 q 1839 -127 2000 634 q 1345 -221 1569 -221 q 979 489 1162 163 l 828 -221 q 203 -97 367 -178 q 467 1057 322 387 l 267 1059 l 351 1586 m 1926 2254 q 1739 1742 1925 1868 q 1463 1676 1619 1666 q 1200 1852 1274 1690 q 1202 1893 1190 1883 q 1265 1762 1183 1870 q 896 1689 1187 1651 q 955 2136 800 1931 q 1261 2283 1072 2279 q 1533 2116 1482 2279 q 1563 2045 1551 2043 q 1556 2047 1555 2044 q 1516 2212 1569 2096 q 1926 2254 1603 2317 z "},"Ò":{"ha":1734,"x_min":119,"x_max":1999,"o":"m 806 614 q 966 485 821 488 q 1219 576 1109 477 q 1318 825 1343 703 q 1162 966 1286 968 q 859 775 980 951 q 806 614 804 687 m 1713 1434 q 730 1364 1280 1785 q 412 987 553 1232 q 267 545 294 761 q 309 192 244 351 q 768 -72 452 -71 q 1841 778 1577 -94 q 1868 1070 1876 922 q 1713 1434 1847 1304 m 1076 2030 q 1430 1789 1370 1812 l 1563 1952 q 1204 2193 1362 2102 q 1076 2030 1125 2107 m 684 604 q 758 843 680 721 q 1155 1088 912 1067 q 1438 850 1382 1093 q 1303 488 1475 664 q 962 363 1154 352 q 684 604 712 368 m 1794 1525 q 1990 1078 1965 1360 q 1959 745 1999 911 q 766 -194 1666 -219 q 198 140 378 -193 q 146 559 119 334 q 304 1045 176 798 q 656 1462 459 1314 q 1794 1525 1282 1940 m 911 2001 q 1181 2348 1028 2182 q 1737 1974 1430 2203 l 1470 1644 q 911 2001 1310 1704 z "},"Ó":{"ha":1734,"x_min":119,"x_max":1999,"o":"m 806 614 q 966 485 821 488 q 1219 576 1109 477 q 1318 825 1343 703 q 1162 966 1286 968 q 859 775 980 951 q 806 614 804 687 m 1713 1434 q 730 1364 1280 1785 q 412 987 553 1232 q 267 545 294 761 q 309 192 244 351 q 768 -72 452 -71 q 1841 778 1577 -94 q 1868 1070 1876 922 q 1713 1434 1847 1304 m 1173 1803 q 1651 2058 1240 1825 q 1601 2201 1634 2135 q 1117 1947 1403 2109 l 1173 1803 m 684 604 q 758 843 680 721 q 1155 1088 912 1067 q 1438 850 1382 1093 q 1303 488 1475 664 q 962 363 1154 352 q 684 604 712 368 m 1794 1525 q 1990 1078 1965 1360 q 1959 745 1999 911 q 766 -194 1666 -219 q 198 140 378 -193 q 146 559 119 334 q 304 1045 176 798 q 656 1462 459 1314 q 1794 1525 1282 1940 m 1101 1651 l 965 2001 q 1657 2362 1348 2218 q 1789 1995 1750 2176 q 1101 1651 1289 1712 z "},"Ô":{"ha":1734,"x_min":119,"x_max":1999,"o":"m 806 614 q 966 485 821 488 q 1219 576 1109 477 q 1318 825 1343 703 q 1162 966 1286 968 q 859 775 980 951 q 806 614 804 687 m 1713 1434 q 730 1364 1280 1785 q 412 987 553 1232 q 267 545 294 761 q 309 192 244 351 q 768 -72 452 -71 q 1841 778 1577 -94 q 1868 1070 1876 922 q 1713 1434 1847 1304 m 1352 2005 q 1589 1818 1513 1917 l 1716 1969 q 1416 2205 1573 2115 q 984 1949 1209 2112 l 1023 1824 q 1352 2005 1198 1941 m 684 604 q 758 843 680 721 q 1155 1088 912 1067 q 1438 850 1382 1093 q 1303 488 1475 664 q 962 363 1154 352 q 684 604 712 368 m 1794 1525 q 1990 1078 1965 1360 q 1959 745 1999 911 q 766 -194 1666 -219 q 198 140 378 -193 q 146 559 119 334 q 304 1045 176 798 q 656 1462 459 1314 q 1794 1525 1282 1940 m 1345 1870 q 954 1632 1257 1832 l 842 1997 q 1423 2342 1148 2218 q 1882 1976 1648 2213 l 1585 1624 q 1345 1870 1432 1822 z "},"Õ":{"ha":1734,"x_min":119,"x_max":1999,"o":"m 1708 2154 q 1564 2193 1556 2183 q 1576 2005 1603 2108 q 1482 1925 1542 1932 q 1320 2084 1362 1911 q 1166 2161 1297 2159 q 956 2061 1035 2159 q 887 1801 843 1912 q 1019 1760 1035 1782 q 1021 1981 930 1875 q 1219 1896 1156 2094 q 1375 1799 1259 1807 q 1577 1844 1493 1792 q 1708 2154 1708 1933 m 1713 1434 q 730 1364 1280 1785 q 412 987 553 1232 q 267 545 294 761 q 309 192 244 351 q 768 -72 452 -71 q 1841 778 1577 -94 q 1868 1070 1876 922 q 1713 1434 1847 1304 m 806 614 q 966 485 821 488 q 1219 576 1109 477 q 1318 825 1343 703 q 1162 966 1286 968 q 859 775 980 951 q 806 614 804 687 m 1830 2254 q 1643 1742 1830 1870 q 1367 1677 1524 1667 q 1105 1853 1178 1691 q 1107 1894 1095 1883 q 1170 1763 1088 1871 q 800 1690 1093 1651 q 859 2137 705 1931 q 1166 2283 977 2279 q 1438 2117 1388 2280 q 1468 2045 1455 2044 q 1461 2047 1459 2045 q 1421 2212 1474 2097 q 1830 2254 1508 2317 m 1794 1525 q 1990 1078 1965 1360 q 1959 745 1999 911 q 766 -194 1666 -219 q 198 140 378 -193 q 146 559 119 334 q 304 1045 176 798 q 656 1462 459 1314 q 1794 1525 1282 1940 m 684 604 q 758 843 680 721 q 1155 1088 912 1067 q 1438 850 1382 1093 q 1303 488 1475 664 q 962 363 1154 352 q 684 604 712 368 z "},"Ö":{"ha":1734,"x_min":119,"x_max":1999,"o":"m 806 614 q 966 485 821 488 q 1219 576 1109 477 q 1318 825 1343 703 q 1162 966 1286 968 q 859 775 980 951 q 806 614 804 687 m 1713 1434 q 730 1364 1280 1785 q 412 987 553 1232 q 267 545 294 761 q 309 192 244 351 q 768 -72 452 -71 q 1841 778 1577 -94 q 1868 1070 1876 922 q 1713 1434 1847 1304 m 1407 1870 q 1512 1793 1415 1795 q 1689 1855 1613 1786 q 1758 2020 1775 1941 q 1659 2110 1736 2112 q 1444 1977 1529 2100 q 1407 1870 1405 1917 m 924 1870 q 1029 1793 933 1795 q 1207 1855 1131 1786 q 1276 2020 1293 1941 q 1177 2110 1254 2112 q 962 1977 1047 2100 q 924 1870 923 1917 m 684 604 q 758 843 680 721 q 1155 1088 912 1067 q 1438 850 1382 1093 q 1303 488 1475 664 q 962 363 1154 352 q 684 604 712 368 m 1794 1525 q 1990 1078 1965 1360 q 1959 745 1999 911 q 766 -194 1666 -219 q 198 140 378 -193 q 146 559 119 334 q 304 1045 176 798 q 656 1462 459 1314 q 1794 1525 1282 1940 m 1284 1861 q 1342 2045 1282 1951 q 1652 2233 1461 2217 q 1878 2047 1832 2237 q 1773 1767 1908 1902 q 1506 1671 1657 1662 q 1284 1861 1307 1674 m 802 1861 q 860 2045 800 1951 q 1170 2233 979 2217 q 1396 2047 1350 2237 q 1291 1767 1426 1902 q 1024 1671 1175 1662 q 802 1861 825 1674 z "},"×":{"ha":1401,"x_min":73,"x_max":1758,"o":"m 721 1388 q 425 1175 549 1283 q 701 739 524 1057 q 231 309 316 401 q 416 100 342 159 l 820 524 q 1060 111 1002 220 q 1369 365 1209 216 l 1072 760 q 1594 1187 1371 989 q 1404 1379 1539 1266 q 972 962 1298 1293 q 721 1388 842 1168 m 766 1559 q 994 1158 947 1231 q 1406 1538 1216 1384 q 1758 1168 1629 1349 q 1242 737 1449 895 l 1532 350 q 1019 -66 1286 121 q 798 323 895 159 l 426 -67 q 73 317 254 74 q 547 766 231 488 q 255 1189 423 988 q 766 1559 476 1382 z "},"Ø":{"ha":1734,"x_min":119,"x_max":1999,"o":"m 922 897 q 859 775 949 906 q 806 614 804 687 q 773 637 810 574 q 922 897 850 771 m 1230 541 q 1219 576 1156 519 q 1318 825 1343 703 q 1354 749 1314 846 q 1230 541 1284 633 m 1652 1481 q 1750 1642 1731 1611 q 1540 1729 1681 1685 q 1452 1575 1518 1691 q 730 1364 1097 1645 q 412 987 553 1232 q 267 545 294 761 q 309 193 244 351 q 536 -31 377 66 q 450 -184 461 -165 q 620 -260 532 -229 q 729 -72 653 -203 l 768 -72 q 1841 778 1577 -94 q 1868 1070 1876 922 q 1712 1435 1847 1304 q 1652 1481 1706 1441 m 1186 1115 q 776 394 956 710 q 684 604 692 534 q 758 843 680 721 q 1186 1115 872 1009 m 968 336 q 1374 1021 1179 695 q 1438 850 1431 881 q 1303 488 1475 664 q 968 336 1217 410 m 1813 1512 q 1795 1525 1782 1536 q 1990 1078 1965 1360 q 1959 745 1999 911 q 766 -194 1666 -219 l 800 -194 q 675 -408 759 -264 q 284 -233 482 -341 q 372 -74 354 -105 q 198 140 286 -21 q 146 559 119 334 q 304 1045 176 798 q 656 1462 459 1314 q 1390 1712 1067 1775 q 1483 1875 1413 1752 q 1918 1683 1733 1796 q 1813 1512 1835 1548 z "},"Ù":{"ha":1721,"x_min":262,"x_max":2072,"o":"m 591 1162 q 433 638 443 794 q 710 -58 395 59 q 1128 -42 913 -107 q 1797 741 1607 125 q 1942 1551 1914 1141 l 1554 1576 q 1324 607 1480 970 q 1070 441 1242 444 q 880 625 918 454 q 971 1178 856 828 q 1114 1588 1087 1529 q 456 1491 872 1617 q 398 1171 412 1296 l 591 1162 m 1055 2030 q 1409 1789 1348 1812 l 1541 1952 q 1184 2193 1342 2102 q 1055 2030 1103 2107 m 262 1056 q 353 1587 292 1316 q 1295 1690 861 1742 q 1090 1150 1200 1484 q 1000 645 980 816 q 1075 563 1017 568 q 1214 659 1166 565 q 1447 1705 1362 1002 l 2072 1665 q 1914 706 2036 1120 q 1165 -159 1706 30 q 674 -174 917 -233 q 312 646 267 -24 q 414 1048 323 821 l 262 1056 m 891 2001 q 1161 2348 1006 2182 q 1716 1974 1409 2203 l 1449 1644 q 891 2001 1289 1704 z "},"Ú":{"ha":1721,"x_min":262,"x_max":2072,"o":"m 591 1162 q 433 638 443 794 q 710 -58 395 59 q 1128 -42 913 -107 q 1797 741 1607 125 q 1942 1551 1914 1141 l 1554 1576 q 1324 607 1480 970 q 1070 441 1242 444 q 880 625 918 454 q 971 1178 856 828 q 1114 1588 1087 1529 q 456 1491 872 1617 q 398 1171 412 1296 l 591 1162 m 1152 1803 q 1630 2058 1219 1825 q 1580 2201 1613 2135 q 1097 1947 1383 2109 l 1152 1803 m 262 1056 q 353 1587 292 1316 q 1295 1690 861 1742 q 1090 1150 1200 1484 q 1000 645 980 816 q 1075 563 1017 568 q 1214 659 1166 565 q 1447 1705 1362 1002 l 2072 1665 q 1914 706 2036 1120 q 1165 -159 1706 30 q 674 -174 917 -233 q 312 646 267 -24 q 414 1048 323 821 l 262 1056 m 1080 1651 l 945 2001 q 1636 2362 1326 2218 q 1768 1995 1729 2176 q 1080 1651 1268 1712 z "},"Û":{"ha":1721,"x_min":262,"x_max":2072,"o":"m 591 1162 q 433 638 443 794 q 710 -58 395 59 q 1128 -42 913 -107 q 1797 741 1607 125 q 1942 1551 1914 1141 l 1554 1576 q 1324 607 1480 970 q 1070 441 1242 444 q 880 625 918 454 q 971 1178 856 828 q 1114 1588 1087 1529 q 456 1491 872 1617 q 398 1171 412 1296 l 591 1162 m 1381 2002 q 1618 1815 1541 1914 l 1746 1966 q 1445 2202 1601 2112 q 1013 1946 1239 2109 l 1052 1821 q 1381 2002 1227 1938 m 262 1056 q 353 1587 292 1316 q 1295 1690 861 1742 q 1090 1150 1200 1484 q 1000 645 980 816 q 1075 563 1017 568 q 1214 659 1166 565 q 1447 1705 1362 1002 l 2072 1665 q 1914 706 2036 1120 q 1165 -159 1706 30 q 674 -174 917 -233 q 312 646 267 -24 q 414 1048 323 821 l 262 1056 m 1373 1866 q 983 1628 1285 1829 l 870 1993 q 1453 2339 1177 2215 q 1910 1973 1676 2209 l 1613 1621 q 1373 1866 1461 1819 z "},"Ü":{"ha":1721,"x_min":262,"x_max":2072,"o":"m 591 1162 q 433 638 443 794 q 710 -58 395 59 q 1128 -42 913 -107 q 1797 741 1607 125 q 1942 1551 1914 1141 l 1554 1576 q 1324 607 1480 970 q 1070 441 1242 444 q 880 625 918 454 q 971 1178 856 828 q 1114 1588 1087 1529 q 456 1491 872 1617 q 398 1171 412 1296 l 591 1162 m 1421 1856 q 1526 1779 1431 1781 q 1704 1841 1628 1772 q 1774 2005 1790 1927 q 1674 2096 1752 2098 q 1459 1963 1544 2086 q 1421 1856 1420 1903 m 939 1856 q 1044 1779 949 1781 q 1222 1841 1146 1772 q 1292 2005 1308 1927 q 1192 2096 1270 2098 q 977 1963 1062 2086 q 939 1856 938 1903 m 262 1056 q 353 1587 292 1316 q 1295 1690 861 1742 q 1090 1150 1200 1484 q 1000 645 980 816 q 1075 563 1017 568 q 1214 659 1166 565 q 1447 1705 1362 1002 l 2072 1665 q 1914 706 2036 1120 q 1165 -159 1706 30 q 674 -174 917 -233 q 312 646 267 -24 q 414 1048 323 821 l 262 1056 m 1300 1847 q 1358 2030 1297 1937 q 1668 2218 1477 2203 q 1893 2032 1847 2222 q 1789 1752 1923 1887 q 1521 1657 1672 1647 q 1300 1847 1322 1660 m 818 1847 q 876 2030 815 1937 q 1185 2218 995 2203 q 1411 2032 1365 2222 q 1307 1752 1440 1887 q 1039 1657 1190 1647 q 818 1847 840 1660 z "},"Ý":{"ha":1695,"x_min":275,"x_max":2093,"o":"m 1104 -88 q 1282 753 1175 236 q 1925 1330 1699 1123 q 1700 1585 1831 1444 q 1180 1082 1477 1376 q 818 1573 953 1379 l 448 1255 q 887 747 694 980 q 707 -83 769 227 q 1104 -88 876 -90 m 1158 1803 q 1636 2058 1225 1825 q 1587 2201 1620 2135 q 1103 1947 1389 2109 l 1158 1803 m 1203 -209 q 559 -199 874 -212 q 755 715 650 252 q 275 1267 602 900 l 841 1754 q 1192 1266 1052 1451 q 1706 1757 1392 1464 q 2093 1318 1923 1525 q 1393 688 1780 1032 q 1203 -209 1294 210 m 1086 1651 l 951 2001 q 1643 2362 1333 2218 q 1775 1995 1736 2176 q 1086 1651 1275 1712 z "},"à":{"ha":1397,"x_min":-10,"x_max":1547,"o":"m 882 396 q 931 470 904 427 q 869 468 876 469 q 882 396 870 441 m 195 -32 q 482 -87 329 -51 q 627 146 524 -18 q 1021 145 784 163 l 1050 -83 q 1354 -42 1185 -56 q 1082 1343 1185 951 l 195 -32 m 884 1825 q 1239 1584 1178 1607 l 1372 1747 q 1014 1988 1172 1896 q 884 1825 933 1902 m 932 674 q 996 357 991 460 q 708 342 882 347 q 932 674 803 494 m 1130 1641 q 1496 -152 1305 977 q 946 -230 1202 -177 l 913 31 q 700 31 786 41 q 540 -225 628 -83 q -10 -125 307 -172 l 1130 1641 m 721 1795 q 991 2142 836 1976 q 1547 1769 1239 1998 l 1278 1438 q 721 1795 1119 1498 z "},"á":{"ha":1397,"x_min":-10,"x_max":1534,"o":"m 882 396 q 931 470 904 427 q 869 468 876 469 q 882 396 870 441 m 195 -32 q 482 -87 329 -51 q 627 146 524 -18 q 1021 145 784 163 l 1050 -83 q 1354 -42 1185 -56 q 1082 1343 1185 951 l 195 -32 m 918 1525 q 1396 1780 984 1547 q 1345 1923 1379 1857 q 862 1669 1148 1831 l 918 1525 m 932 674 q 996 357 991 460 q 708 342 882 347 q 932 674 803 494 m 1130 1641 q 1496 -152 1305 977 q 946 -230 1202 -177 l 913 31 q 700 31 786 41 q 540 -225 628 -83 q -10 -125 307 -172 l 1130 1641 m 845 1373 l 710 1723 q 1402 2084 1092 1940 q 1534 1717 1495 1898 q 845 1373 1034 1434 z "},"â":{"ha":1397,"x_min":-10,"x_max":1687,"o":"m 882 396 q 931 470 904 427 q 869 468 876 469 q 882 396 870 441 m 195 -32 q 482 -87 329 -51 q 627 146 524 -18 q 1021 145 784 163 l 1050 -83 q 1354 -42 1185 -56 q 1082 1343 1185 951 l 195 -32 m 1157 1760 q 1394 1573 1318 1672 l 1522 1724 q 1221 1960 1377 1870 q 789 1704 1015 1867 l 827 1579 q 1157 1760 1004 1695 m 932 674 q 996 357 991 460 q 708 342 882 347 q 932 674 803 494 m 1130 1641 q 1496 -152 1305 977 q 946 -230 1202 -177 l 913 31 q 700 31 786 41 q 540 -225 628 -83 q -10 -125 307 -172 l 1130 1641 m 1150 1624 q 759 1386 1061 1587 l 647 1751 q 1228 2097 953 1973 q 1687 1731 1453 1967 l 1390 1379 q 1150 1624 1237 1577 z "},"ã":{"ha":1397,"x_min":-10,"x_max":1718,"o":"m 882 396 q 931 470 904 427 q 869 468 876 469 q 882 396 870 441 m 195 -32 q 482 -87 329 -51 q 627 146 524 -18 q 1021 145 784 163 l 1050 -83 q 1354 -42 1185 -56 q 1082 1343 1185 951 l 195 -32 m 1596 1945 q 1453 1984 1444 1974 q 1464 1796 1491 1899 q 1371 1716 1430 1723 q 1208 1875 1251 1702 q 1055 1952 1185 1950 q 843 1852 924 1950 q 775 1592 732 1704 q 907 1551 922 1573 q 909 1772 819 1666 q 1107 1688 1043 1884 q 1264 1590 1147 1598 q 1464 1635 1380 1583 q 1596 1945 1596 1725 m 932 674 q 996 357 991 460 q 708 342 882 347 q 932 674 803 494 m 1130 1641 q 1496 -152 1305 977 q 946 -230 1202 -177 l 913 31 q 700 31 786 41 q 540 -225 628 -83 q -10 -125 307 -172 l 1130 1641 m 1718 2045 q 1531 1533 1718 1660 q 1256 1468 1412 1458 q 994 1643 1066 1482 q 995 1685 983 1675 q 1058 1554 975 1662 q 688 1481 980 1442 q 747 1928 593 1723 q 1055 2075 865 2070 q 1326 1908 1276 2071 q 1356 1836 1343 1835 q 1349 1839 1348 1836 q 1310 2003 1362 1888 q 1718 2045 1396 2108 z "},"ä":{"ha":1397,"x_min":-10,"x_max":1718,"o":"m 882 396 q 931 470 904 427 q 869 468 876 469 q 882 396 870 441 m 195 -32 q 482 -87 329 -51 q 627 146 524 -18 q 1021 145 784 163 l 1050 -83 q 1354 -42 1185 -56 q 1082 1343 1185 951 l 195 -32 m 1218 1630 q 1322 1552 1227 1554 q 1501 1614 1426 1546 q 1570 1780 1586 1700 q 1470 1870 1548 1871 q 1255 1736 1341 1860 q 1218 1630 1217 1676 m 736 1630 q 840 1552 745 1554 q 1019 1614 943 1546 q 1088 1780 1104 1700 q 988 1870 1066 1871 q 772 1736 859 1860 q 736 1630 734 1676 m 932 674 q 996 357 991 460 q 708 342 882 347 q 932 674 803 494 m 1130 1641 q 1496 -152 1305 977 q 946 -230 1202 -177 l 913 31 q 700 31 786 41 q 540 -225 628 -83 q -10 -125 307 -172 l 1130 1641 m 1097 1620 q 1154 1804 1093 1710 q 1464 1992 1274 1976 q 1689 1805 1645 1996 q 1586 1526 1718 1661 q 1318 1430 1469 1421 q 1097 1620 1119 1434 m 614 1620 q 671 1804 611 1710 q 982 1992 791 1976 q 1207 1805 1162 1996 q 1103 1526 1236 1661 q 836 1430 987 1421 q 614 1620 637 1434 z "},"å":{"ha":1397,"x_min":-10,"x_max":1559,"o":"m 882 396 q 931 470 904 427 q 869 468 876 469 q 882 396 870 441 m 1206 1754 q 1200 1748 1201 1752 q 1185 1786 1208 1776 q 1164 1788 1172 1793 q 1164 1790 1164 1788 q 1191 1756 1160 1767 q 1206 1754 1203 1752 m 195 -32 q 482 -87 329 -51 q 627 146 524 -18 q 1021 145 784 163 l 1050 -83 q 1354 -42 1185 -56 q 1082 1343 1185 951 l 195 -32 m 1044 1902 q 963 1632 899 1770 q 1040 1575 986 1593 q 1116 1566 1078 1565 q 1408 1821 1365 1588 q 1373 1955 1426 1905 q 1290 1984 1338 1979 q 1165 1969 1232 1989 q 1044 1902 1090 1944 m 932 674 q 996 357 991 460 q 708 342 882 347 q 932 674 803 494 m 1158 1866 q 1227 1872 1194 1881 q 1284 1769 1300 1847 q 1237 1689 1277 1720 q 1133 1676 1183 1652 q 1082 1781 1062 1710 q 1158 1866 1099 1840 m 1130 1641 q 1496 -152 1305 977 q 946 -230 1202 -177 l 913 31 q 700 31 786 41 q 540 -225 628 -83 q -10 -125 307 -172 l 1130 1641 m 962 1992 q 1128 2086 1027 2051 q 1301 2106 1220 2112 q 1449 2050 1382 2097 q 1528 1798 1559 1947 q 1123 1444 1468 1476 q 1004 1459 1062 1442 q 855 1575 904 1491 q 962 1992 751 1800 z "},"æ":{"ha":1976,"x_min":-10,"x_max":2412,"o":"m 882 396 q 931 470 904 427 q 869 468 876 469 q 882 396 870 441 m 1404 -37 q 1957 -35 1826 -35 q 2004 223 1967 45 q 1451 222 1805 215 l 1512 515 q 1901 524 1829 519 l 1937 703 l 1548 698 l 1609 1010 l 2167 1004 q 2245 1284 2194 1120 q 1360 1276 1508 1282 q 1235 630 1331 1118 q 1082 1343 1106 1251 l 195 -32 q 482 -87 329 -51 q 627 146 524 -18 q 1021 145 784 163 l 1050 -83 q 1404 -37 1178 -58 m 932 674 q 996 357 991 460 q 708 342 882 347 q 932 674 803 494 m 1411 -159 q 946 -230 1196 -178 l 913 31 q 700 31 786 41 q 540 -225 628 -83 q -10 -125 307 -172 l 1130 1641 q 1232 1247 1225 1279 q 1257 1394 1211 1141 q 2412 1406 1506 1404 q 2264 880 2312 1088 l 1709 886 l 1696 821 l 2086 826 l 2002 408 q 1612 394 1834 397 l 1601 342 q 2155 352 1804 337 q 2064 -155 2087 24 q 1411 -159 1827 -157 z "},"ç":{"ha":1089,"x_min":78,"x_max":1453,"o":"m 608 -18 q 549 -294 561 -229 q 707 -328 621 -294 q 762 -541 909 -412 q 457 -458 556 -689 q 310 -533 328 -522 q 538 -730 370 -704 q 747 -711 646 -739 q 1034 -422 1005 -614 q 902 -253 1045 -315 q 746 -204 821 -223 q 777 -43 759 -121 q 1024 -37 937 -48 l 1103 314 q 677 439 806 248 q 798 813 581 674 q 1222 893 1015 953 l 1307 1305 q 354 828 677 1379 q 273 277 208 521 q 608 -18 349 76 m 465 -96 q 157 239 254 -20 q 246 885 78 533 q 1453 1411 613 1509 l 1315 739 q 883 723 1035 820 q 785 497 732 627 q 1265 475 861 385 l 1124 -149 q 873 -168 943 -170 q 884 -113 879 -144 q 947 -140 857 -106 q 1156 -437 1176 -239 q 785 -828 1116 -702 q 524 -850 656 -863 q 163 -480 278 -814 q 519 -291 269 -414 q 686 -445 608 -500 q 661 -441 681 -450 q 404 -414 597 -416 q 465 -96 441 -204 z "},"è":{"ha":1079,"x_min":-13,"x_max":1464,"o":"m 1311 1280 q 418 1273 567 1279 q 143 -42 269 465 q 1020 -38 807 -39 q 1066 220 1030 7 q 511 219 864 212 l 572 511 q 959 520 888 515 l 996 699 l 606 694 l 668 1006 l 1232 1000 q 1311 1280 1272 1104 m 646 1709 q 1001 1468 941 1491 l 1133 1631 q 775 1872 933 1780 q 646 1709 696 1786 m 1464 1402 q 1316 877 1388 1069 l 768 883 l 755 818 l 1145 823 l 1061 405 q 671 391 893 393 l 660 338 q 1211 349 863 334 q 1119 -159 1149 -16 q -13 -165 808 -161 q 317 1391 149 491 q 1464 1402 564 1401 m 482 1679 q 752 2026 599 1860 q 1308 1653 1001 1882 l 1040 1322 q 482 1679 882 1382 z "},"é":{"ha":1079,"x_min":-13,"x_max":1464,"o":"m 1311 1280 q 418 1273 567 1279 q 143 -42 269 465 q 1020 -38 807 -39 q 1066 220 1030 7 q 511 219 864 212 l 572 511 q 959 520 888 515 l 996 699 l 606 694 l 668 1006 l 1232 1000 q 1311 1280 1272 1104 m 733 1525 q 1211 1780 800 1547 q 1161 1923 1194 1857 q 677 1669 963 1831 l 733 1525 m 1464 1402 q 1316 877 1388 1069 l 768 883 l 755 818 l 1145 823 l 1061 405 q 671 391 893 393 l 660 338 q 1211 349 863 334 q 1119 -159 1149 -16 q -13 -165 808 -161 q 317 1391 149 491 q 1464 1402 564 1401 m 661 1373 l 526 1723 q 1217 2083 907 1940 q 1349 1717 1311 1898 q 661 1373 850 1434 z "},"ê":{"ha":1079,"x_min":-13,"x_max":1503,"o":"m 1311 1280 q 418 1273 567 1279 q 143 -42 269 465 q 1020 -38 807 -39 q 1066 220 1030 7 q 511 219 864 212 l 572 511 q 959 520 888 515 l 996 699 l 606 694 l 668 1006 l 1232 1000 q 1311 1280 1272 1104 m 973 1760 q 1211 1573 1135 1672 l 1338 1724 q 1038 1960 1194 1870 q 606 1704 831 1867 l 644 1579 q 973 1760 820 1695 m 1464 1402 q 1316 877 1388 1069 l 768 883 l 755 818 l 1145 823 l 1061 405 q 671 391 893 393 l 660 338 q 1211 349 863 334 q 1119 -159 1149 -16 q -13 -165 808 -161 q 317 1391 149 491 q 1464 1402 564 1401 m 966 1624 q 575 1386 878 1587 l 463 1751 q 1044 2097 770 1973 q 1503 1731 1270 1967 l 1206 1379 q 966 1624 1053 1577 z "},"ë":{"ha":1079,"x_min":-13,"x_max":1535,"o":"m 1311 1280 q 418 1273 567 1279 q 143 -42 269 465 q 1020 -38 807 -39 q 1066 220 1030 7 q 511 219 864 212 l 572 511 q 959 520 888 515 l 996 699 l 606 694 l 668 1006 l 1232 1000 q 1311 1280 1272 1104 m 1035 1630 q 1139 1552 1044 1554 q 1318 1614 1241 1546 q 1386 1780 1402 1700 q 1287 1870 1364 1871 q 1072 1736 1158 1860 q 1035 1630 1033 1676 m 553 1630 q 657 1552 562 1554 q 836 1614 759 1546 q 904 1780 920 1700 q 805 1870 882 1871 q 589 1736 675 1860 q 553 1630 551 1676 m 1464 1402 q 1316 877 1388 1069 l 768 883 l 755 818 l 1145 823 l 1061 405 q 671 391 893 393 l 660 338 q 1211 349 863 334 q 1119 -159 1149 -16 q -13 -165 808 -161 q 317 1391 149 491 q 1464 1402 564 1401 m 913 1620 q 970 1804 909 1710 q 1281 1992 1090 1976 q 1506 1805 1461 1996 q 1402 1526 1535 1661 q 1134 1430 1284 1421 q 913 1620 935 1434 m 431 1620 q 488 1804 427 1710 q 799 1992 608 1976 q 1023 1805 979 1996 q 920 1526 1053 1661 q 652 1430 802 1421 q 431 1620 453 1434 z "},"ì":{"ha":653,"x_min":102,"x_max":1196,"o":"m 926 1299 q 516 1289 649 1324 q 242 -35 307 417 q 618 -28 448 -36 q 926 1299 757 604 m 580 1685 q 902 1464 849 1485 l 1021 1611 q 695 1830 839 1746 q 580 1685 623 1752 m 1078 1407 q 718 -144 876 577 q 102 -155 450 -158 q 415 1390 186 440 q 1078 1407 639 1447 m 416 1655 q 672 1984 526 1827 q 1196 1632 906 1848 l 941 1319 q 416 1655 790 1376 z "},"í":{"ha":692,"x_min":65,"x_max":1118,"o":"m 889 1299 q 479 1289 612 1324 q 205 -35 270 417 q 582 -28 411 -36 q 889 1299 720 604 m 591 1525 q 979 1734 637 1541 q 943 1838 966 1791 q 549 1631 785 1765 l 591 1525 m 1042 1407 q 682 -144 839 577 q 65 -155 414 -158 q 378 1390 150 440 q 1042 1407 602 1447 m 519 1373 l 397 1685 q 1000 1999 728 1873 q 1118 1672 1082 1832 q 519 1373 687 1428 z "},"î":{"ha":784,"x_min":81,"x_max":1202,"o":"m 905 1299 q 495 1289 628 1324 q 221 -35 286 417 q 597 -28 427 -36 q 905 1299 736 604 m 753 1721 q 947 1573 891 1645 l 1037 1679 q 805 1861 926 1790 q 463 1659 642 1788 l 488 1577 q 753 1721 621 1666 m 1057 1407 q 697 -144 854 577 q 81 -155 429 -158 q 394 1390 165 440 q 1057 1407 618 1447 m 746 1586 q 419 1385 679 1557 l 321 1706 q 812 1998 580 1893 q 1202 1686 1002 1888 l 943 1379 q 746 1586 810 1550 z "},"ï":{"ha":800,"x_min":121,"x_max":1333,"o":"m 945 1299 q 535 1289 668 1324 q 261 -35 326 417 q 637 -28 467 -36 q 945 1299 776 604 m 886 1615 q 972 1552 893 1554 q 1126 1605 1061 1546 q 1187 1747 1200 1680 q 1104 1822 1168 1824 q 918 1706 991 1813 q 886 1615 884 1654 m 455 1615 q 542 1552 463 1554 q 696 1605 631 1546 q 757 1747 770 1680 q 674 1822 738 1824 q 487 1706 562 1813 q 455 1615 454 1655 m 1097 1407 q 737 -144 895 577 q 121 -155 469 -158 q 434 1390 205 440 q 1097 1407 658 1447 m 764 1607 q 817 1774 762 1689 q 1098 1944 924 1930 q 1306 1773 1264 1948 q 1211 1517 1333 1640 q 967 1430 1105 1421 q 764 1607 785 1433 m 334 1606 q 386 1774 331 1689 q 668 1944 494 1930 q 876 1773 833 1948 q 781 1517 902 1640 q 537 1430 675 1421 q 334 1606 353 1433 z "},"ñ":{"ha":1341,"x_min":-18,"x_max":1729,"o":"m 459 1455 q 139 -57 223 288 q 425 -55 271 -49 l 578 753 q 1243 -174 882 367 q 1577 1322 1419 545 q 1240 1301 1444 1308 q 1114 644 1190 1021 q 459 1455 783 1124 m 1545 1945 q 1401 1984 1392 1974 q 1413 1796 1440 1899 q 1319 1716 1379 1723 q 1157 1875 1200 1702 q 1004 1952 1134 1950 q 792 1852 872 1950 q 724 1592 680 1704 q 856 1551 871 1573 q 858 1772 768 1666 q 1056 1688 991 1884 q 1213 1590 1096 1598 q 1413 1635 1329 1583 q 1545 1945 1544 1725 m 385 1704 q 1050 950 878 1202 q 1138 1419 1069 1044 q 1729 1462 1436 1430 q 1295 -472 1539 518 q 648 467 783 295 l 526 -181 q -18 -189 273 -171 q 385 1704 104 315 m 1667 2045 q 1480 1533 1666 1660 q 1204 1468 1360 1458 q 942 1643 1015 1482 q 944 1685 932 1675 q 1007 1554 924 1662 q 637 1481 929 1442 q 696 1928 541 1723 q 1004 2075 813 2070 q 1275 1908 1225 2071 q 1304 1836 1293 1835 q 1297 1839 1296 1836 q 1258 2003 1311 1888 q 1667 2045 1345 2108 z "},"ò":{"ha":1399,"x_min":56,"x_max":1691,"o":"m 680 498 q 785 374 685 376 q 979 471 888 368 q 1060 680 1076 578 q 954 791 1038 793 q 723 633 817 779 q 680 498 678 560 m 1387 1204 q 621 1140 1100 1483 q 375 825 481 1028 q 244 434 269 622 q 344 13 189 190 q 913 -53 500 -165 q 1480 640 1326 60 q 1387 1204 1559 991 m 795 1709 q 1149 1468 1089 1491 l 1282 1631 q 924 1872 1082 1780 q 795 1709 844 1786 m 557 494 q 620 699 555 593 q 947 913 747 895 q 1181 701 1139 918 q 1069 389 1206 539 q 780 252 940 242 q 557 494 568 257 m 1478 1287 q 1598 611 1691 1023 q 942 -171 1426 -39 q 257 -74 458 -303 q 123 456 56 156 q 268 883 151 660 q 547 1238 385 1107 q 1478 1287 1112 1642 m 631 1679 q 901 2026 747 1860 q 1457 1653 1150 1882 l 1189 1322 q 631 1679 1029 1382 z "},"ó":{"ha":1399,"x_min":56,"x_max":1691,"o":"m 680 498 q 785 374 685 376 q 979 471 888 368 q 1060 680 1076 578 q 954 791 1038 793 q 723 633 817 779 q 680 498 678 560 m 1387 1204 q 621 1140 1100 1483 q 375 825 481 1028 q 244 434 269 622 q 344 13 189 190 q 913 -53 500 -165 q 1480 640 1326 60 q 1387 1204 1559 991 m 882 1525 q 1360 1780 949 1547 q 1310 1923 1343 1857 q 826 1669 1112 1831 l 882 1525 m 557 494 q 620 699 555 593 q 947 913 747 895 q 1181 701 1139 918 q 1069 389 1206 539 q 780 252 940 242 q 557 494 568 257 m 1478 1287 q 1598 611 1691 1023 q 942 -171 1426 -39 q 257 -74 458 -303 q 123 456 56 156 q 268 883 151 660 q 547 1238 385 1107 q 1478 1287 1112 1642 m 810 1373 l 674 1723 q 1366 2084 1057 1940 q 1498 1717 1459 1898 q 810 1373 998 1434 z "},"ô":{"ha":1399,"x_min":56,"x_max":1691,"o":"m 680 498 q 785 374 685 376 q 979 471 888 368 q 1060 680 1076 578 q 954 791 1038 793 q 723 633 817 779 q 680 498 678 560 m 1387 1204 q 621 1140 1100 1483 q 375 825 481 1028 q 244 434 269 622 q 344 13 189 190 q 913 -53 500 -165 q 1480 640 1326 60 q 1387 1204 1559 991 m 1122 1760 q 1359 1573 1283 1672 l 1487 1724 q 1187 1960 1342 1870 q 754 1704 980 1867 l 793 1579 q 1122 1760 968 1695 m 557 494 q 620 699 555 593 q 947 913 747 895 q 1181 701 1139 918 q 1069 389 1206 539 q 780 252 940 242 q 557 494 568 257 m 1478 1287 q 1598 611 1691 1023 q 942 -171 1426 -39 q 257 -74 458 -303 q 123 456 56 156 q 268 883 151 660 q 547 1238 385 1107 q 1478 1287 1112 1642 m 1115 1624 q 724 1386 1027 1587 l 612 1751 q 1194 2097 919 1973 q 1652 1731 1417 1967 l 1355 1379 q 1115 1624 1202 1577 z "},"õ":{"ha":1399,"x_min":56,"x_max":1691,"o":"m 680 498 q 785 374 685 376 q 979 471 888 368 q 1060 680 1076 578 q 954 791 1038 793 q 723 633 817 779 q 680 498 678 560 m 1387 1204 q 621 1140 1100 1483 q 375 825 481 1028 q 244 434 269 622 q 344 13 189 190 q 913 -53 500 -165 q 1480 640 1326 60 q 1387 1204 1559 991 m 1561 1945 q 1417 1984 1409 1974 q 1429 1797 1456 1899 q 1335 1716 1396 1723 q 1174 1875 1215 1702 q 1020 1952 1150 1950 q 808 1852 888 1950 q 740 1592 696 1704 q 872 1551 887 1573 q 875 1772 783 1666 q 1072 1687 1009 1885 q 1229 1590 1113 1598 q 1430 1635 1345 1583 q 1561 1945 1560 1725 m 557 494 q 620 699 555 593 q 947 913 747 895 q 1181 701 1139 918 q 1069 389 1206 539 q 780 252 940 242 q 557 494 568 257 m 1478 1287 q 1598 611 1691 1023 q 942 -171 1426 -39 q 257 -74 458 -303 q 123 456 56 156 q 268 883 151 660 q 547 1238 385 1107 q 1478 1287 1112 1642 m 1683 2045 q 1496 1533 1683 1660 q 1221 1468 1377 1458 q 958 1644 1031 1482 q 960 1685 948 1674 q 1023 1554 941 1662 q 653 1481 945 1442 q 712 1928 558 1723 q 1020 2075 830 2070 q 1292 1908 1240 2071 q 1320 1836 1309 1835 q 1314 1838 1312 1836 q 1275 2003 1327 1888 q 1683 2045 1362 2108 z "},"ö":{"ha":1399,"x_min":56,"x_max":1691,"o":"m 680 498 q 785 374 685 376 q 979 471 888 368 q 1060 680 1076 578 q 954 791 1038 793 q 723 633 817 779 q 680 498 678 560 m 1387 1204 q 621 1140 1100 1483 q 375 825 481 1028 q 244 434 269 622 q 344 13 189 190 q 913 -53 500 -165 q 1480 640 1326 60 q 1387 1204 1559 991 m 1183 1630 q 1288 1552 1192 1554 q 1466 1614 1390 1546 q 1535 1779 1552 1700 q 1435 1870 1513 1871 q 1221 1736 1306 1860 q 1183 1630 1182 1676 m 701 1630 q 806 1552 710 1554 q 984 1614 908 1546 q 1053 1779 1069 1700 q 953 1870 1031 1871 q 739 1736 824 1860 q 701 1630 700 1676 m 557 494 q 620 699 555 593 q 947 913 747 895 q 1181 701 1139 918 q 1069 389 1206 539 q 780 252 940 242 q 557 494 568 257 m 1478 1287 q 1598 611 1691 1023 q 942 -171 1426 -39 q 257 -74 458 -303 q 123 456 56 156 q 268 883 151 660 q 547 1238 385 1107 q 1478 1287 1112 1642 m 1061 1620 q 1119 1804 1059 1710 q 1429 1992 1238 1976 q 1655 1806 1609 1996 q 1550 1526 1685 1661 q 1282 1430 1434 1421 q 1061 1620 1084 1434 m 579 1620 q 637 1804 576 1710 q 947 1992 756 1976 q 1173 1806 1127 1996 q 1068 1526 1202 1661 q 800 1430 951 1421 q 579 1620 602 1434 z "},"÷":{"ha":541,"x_min":79,"x_max":878,"o":"m 245 480 q 309 360 224 384 q 471 376 393 336 q 580 496 541 412 q 549 639 614 586 q 385 630 492 673 q 245 480 279 587 m 361 1031 q 426 911 340 935 q 588 928 511 888 q 697 1048 657 964 q 666 1190 732 1137 q 502 1182 608 1225 q 361 1031 396 1139 m 127 511 q 341 744 180 680 q 618 739 503 809 q 692 448 761 625 q 527 268 633 323 q 243 252 407 206 q 127 511 79 297 m 243 1063 q 458 1296 298 1231 q 736 1291 619 1360 q 809 999 878 1177 q 644 819 750 874 q 360 803 524 758 q 243 1063 197 848 z "},"ø":{"ha":1399,"x_min":56,"x_max":1689,"o":"m 696 690 q 723 633 786 731 q 680 498 678 560 q 653 615 681 474 q 696 690 673 651 m 1091 539 q 1046 465 1061 488 q 979 471 928 413 q 1061 679 1076 578 q 1091 539 1059 683 m 1198 1319 q 621 1140 928 1360 q 375 825 481 1028 q 244 434 269 622 q 347 9 189 190 q 416 -52 361 -6 q 304 -252 327 -210 q 448 -315 372 -289 q 576 -96 490 -243 q 912 -53 740 -100 q 1480 640 1326 60 q 1366 1233 1558 985 q 1471 1406 1445 1364 q 1291 1480 1413 1441 q 1198 1319 1266 1437 m 990 958 q 596 269 779 590 q 557 494 559 459 q 620 699 555 593 q 990 958 703 827 m 1144 866 q 1180 702 1179 710 q 1069 389 1206 539 q 750 203 1001 311 q 1144 866 956 551 m 1134 1452 q 1234 1626 1160 1498 q 1639 1447 1465 1552 q 1514 1241 1550 1300 q 1598 611 1689 1015 q 945 -171 1426 -39 q 645 -219 755 -222 q 504 -465 596 -304 q 137 -301 323 -401 q 260 -81 220 -151 q 255 -71 275 -94 q 123 456 56 156 q 268 883 151 660 q 547 1238 385 1107 q 1134 1452 898 1489 z "},"ù":{"ha":1382,"x_min":125,"x_max":1684,"o":"m 802 1322 q 515 1312 684 1325 q 286 522 329 920 q 515 -61 253 36 q 866 -47 686 -102 q 1432 614 1272 93 q 1554 1293 1531 954 l 1237 1314 q 1042 494 1175 804 q 821 350 970 353 q 652 512 686 361 q 718 1007 631 686 q 802 1322 804 1328 m 785 1709 q 1139 1468 1078 1491 l 1271 1631 q 913 1872 1072 1780 q 785 1709 833 1786 m 981 1438 q 838 982 920 1289 q 772 532 755 676 q 825 472 785 475 q 932 546 895 473 q 1130 1443 1056 836 l 1684 1407 q 1548 578 1652 932 q 904 -164 1370 -2 q 479 -178 690 -229 q 164 532 125 -47 q 435 1428 210 954 q 981 1438 681 1447 m 621 1679 q 890 2026 736 1860 q 1446 1653 1139 1882 l 1178 1322 q 621 1679 1019 1382 z "},"ú":{"ha":1382,"x_min":125,"x_max":1684,"o":"m 802 1322 q 515 1312 684 1325 q 286 522 329 920 q 515 -61 253 36 q 866 -47 686 -102 q 1432 614 1272 93 q 1554 1293 1531 954 l 1237 1314 q 1042 494 1175 804 q 821 350 970 353 q 652 512 686 361 q 718 1007 631 686 q 802 1322 804 1328 m 871 1525 q 1349 1780 938 1547 q 1299 1923 1333 1857 q 815 1669 1101 1831 l 871 1525 m 981 1438 q 838 982 920 1289 q 772 532 755 676 q 825 472 785 475 q 932 546 895 473 q 1130 1443 1056 836 l 1684 1407 q 1548 578 1652 932 q 904 -164 1370 -2 q 479 -178 690 -229 q 164 532 125 -47 q 435 1428 210 954 q 981 1438 681 1447 m 799 1373 l 663 1723 q 1356 2084 1046 1940 q 1487 1717 1449 1898 q 799 1373 987 1434 z "},"û":{"ha":1382,"x_min":125,"x_max":1684,"o":"m 802 1322 q 515 1312 684 1325 q 286 522 329 920 q 515 -61 253 36 q 866 -47 686 -102 q 1432 614 1272 93 q 1554 1293 1531 954 l 1237 1314 q 1042 494 1175 804 q 821 350 970 353 q 652 512 686 361 q 718 1007 631 686 q 802 1322 804 1328 m 1110 1760 q 1348 1573 1272 1672 l 1475 1724 q 1175 1960 1331 1870 q 743 1704 968 1867 l 781 1579 q 1110 1760 958 1695 m 981 1438 q 838 982 920 1289 q 772 532 755 676 q 825 472 785 475 q 932 546 895 473 q 1130 1443 1056 836 l 1684 1407 q 1548 578 1652 932 q 904 -164 1370 -2 q 479 -178 690 -229 q 164 532 125 -47 q 435 1428 210 954 q 981 1438 681 1447 m 1103 1624 q 713 1386 1015 1587 l 600 1751 q 1181 2097 907 1973 q 1640 1731 1407 1967 l 1343 1379 q 1103 1624 1191 1577 z "},"ü":{"ha":1382,"x_min":125,"x_max":1684,"o":"m 802 1322 q 515 1312 684 1325 q 286 522 329 920 q 515 -61 253 36 q 866 -47 686 -102 q 1432 614 1272 93 q 1554 1293 1531 954 l 1237 1314 q 1042 494 1175 804 q 821 350 970 353 q 652 512 686 361 q 718 1007 631 686 q 802 1322 804 1328 m 1172 1630 q 1276 1552 1181 1554 q 1455 1614 1379 1546 q 1523 1780 1539 1700 q 1424 1870 1501 1871 q 1208 1736 1295 1860 q 1172 1630 1170 1676 m 690 1630 q 794 1552 699 1554 q 972 1614 897 1546 q 1041 1780 1057 1700 q 942 1870 1019 1871 q 726 1736 812 1860 q 690 1630 688 1676 m 981 1438 q 838 982 920 1289 q 772 532 755 676 q 825 472 785 475 q 932 546 895 473 q 1130 1443 1056 836 l 1684 1407 q 1548 578 1652 932 q 904 -164 1370 -2 q 479 -178 690 -229 q 164 532 125 -47 q 435 1428 210 954 q 981 1438 681 1447 m 1050 1620 q 1107 1804 1046 1710 q 1418 1992 1227 1976 q 1643 1805 1598 1996 q 1539 1526 1672 1661 q 1272 1430 1422 1421 q 1050 1620 1072 1434 m 568 1620 q 625 1804 564 1710 q 936 1992 745 1976 q 1160 1805 1116 1996 q 1057 1526 1190 1661 q 789 1430 940 1421 q 568 1620 590 1434 z "},"ý":{"ha":1392,"x_min":127,"x_max":1754,"o":"m 573 -116 q 1588 1082 855 178 q 1343 1282 1475 1185 q 1013 852 1242 1165 q 755 1293 816 1172 l 425 1072 q 769 544 564 864 q 330 5 498 182 q 573 -116 422 -41 m 913 1525 q 1392 1780 980 1547 q 1342 1923 1375 1857 q 858 1669 1144 1831 l 913 1525 m 599 -265 q 127 -32 368 -151 q 621 549 405 260 q 255 1105 462 798 l 802 1471 q 1021 1070 922 1232 q 1324 1448 1146 1241 q 1754 1095 1553 1280 q 599 -265 947 96 m 841 1373 l 707 1723 q 1398 2083 1088 1940 q 1529 1717 1491 1898 q 841 1373 1029 1434 z "},"ÿ":{"ha":1392,"x_min":127,"x_max":1754,"o":"m 573 -116 q 1588 1082 855 178 q 1343 1282 1475 1185 q 1013 852 1242 1165 q 755 1293 816 1172 l 425 1072 q 769 544 564 864 q 330 5 498 182 q 573 -116 422 -41 m 1215 1630 q 1320 1552 1225 1554 q 1498 1614 1422 1546 q 1567 1779 1584 1700 q 1467 1870 1545 1871 q 1252 1736 1337 1860 q 1215 1630 1214 1676 m 733 1630 q 838 1552 743 1554 q 1016 1614 940 1546 q 1085 1779 1101 1700 q 985 1870 1063 1871 q 770 1736 855 1860 q 733 1630 732 1676 m 599 -265 q 127 -32 368 -151 q 621 549 405 260 q 255 1105 462 798 l 802 1471 q 1021 1070 922 1232 q 1324 1448 1146 1241 q 1754 1095 1553 1280 q 599 -265 947 96 m 1094 1620 q 1151 1804 1090 1710 q 1461 1992 1270 1976 q 1686 1806 1640 1996 q 1582 1526 1716 1661 q 1315 1430 1466 1421 q 1094 1620 1116 1434 m 612 1620 q 669 1804 608 1710 q 979 1992 788 1976 q 1204 1806 1158 1996 q 1100 1526 1234 1661 q 833 1430 983 1421 q 612 1620 634 1434 z "},"ˆ":{"ha":947,"x_min":367,"x_max":1407,"o":"m 877 1760 q 1114 1573 1038 1672 l 1242 1724 q 941 1960 1097 1870 q 509 1704 734 1867 l 548 1579 q 877 1760 724 1695 m 870 1624 q 479 1386 782 1587 l 367 1751 q 948 2097 673 1973 q 1407 1731 1173 1967 l 1110 1379 q 870 1624 957 1577 z "},"˚":{"ha":706,"x_min":382,"x_max":1191,"o":"m 676 1902 q 595 1632 531 1770 q 672 1575 618 1593 q 747 1566 709 1565 q 1040 1821 996 1588 q 1004 1955 1057 1905 q 921 1984 970 1979 q 797 1969 863 1989 q 676 1902 722 1944 m 838 1754 q 831 1748 832 1752 q 818 1786 840 1776 q 797 1788 804 1793 q 796 1790 795 1788 q 823 1756 791 1767 q 838 1754 835 1752 m 594 1992 q 760 2086 659 2051 q 932 2106 852 2112 q 1081 2050 1014 2097 q 1160 1798 1191 1947 q 755 1444 1100 1476 q 636 1459 694 1442 q 487 1575 536 1491 q 594 1992 382 1800 m 790 1866 q 859 1872 826 1881 q 916 1769 932 1847 q 868 1689 909 1720 q 764 1676 814 1652 q 714 1781 694 1710 q 790 1866 730 1840 z "},"˜":{"ha":1060,"x_min":368,"x_max":1493,"o":"m 1371 1945 q 1227 1984 1219 1974 q 1239 1796 1267 1899 q 1145 1716 1205 1723 q 983 1875 1025 1702 q 829 1952 960 1950 q 618 1852 698 1950 q 550 1592 506 1704 q 682 1551 698 1573 q 684 1772 594 1666 q 882 1687 819 1885 q 1038 1590 922 1598 q 1240 1635 1156 1583 q 1371 1945 1371 1725 m 1493 2045 q 1307 1533 1493 1661 q 1030 1468 1187 1458 q 768 1644 841 1482 q 770 1685 758 1674 q 833 1554 751 1662 q 463 1481 755 1442 q 522 1928 368 1723 q 829 2075 640 2070 q 1101 1908 1050 2071 q 1131 1836 1118 1835 q 1124 1839 1122 1836 q 1084 2003 1137 1888 q 1493 2045 1171 2108 z "},"€":{"ha":1568,"x_min":167,"x_max":1910,"o":"m 465 903 q 425 692 439 788 q 298 692 304 692 l 307 570 l 420 570 q 421 463 420 485 q 628 53 452 191 q 1125 -19 804 -86 q 1552 170 1445 49 q 1540 405 1561 261 q 888 345 1246 243 q 728 570 795 390 q 1383 570 1227 570 q 1415 695 1410 663 q 734 694 1323 696 q 781 903 754 814 q 1454 903 1282 903 q 1485 1028 1480 996 q 816 1027 1411 1029 q 1242 1283 1056 1240 q 1704 1218 1452 1324 q 1775 1430 1755 1339 q 1109 1548 1507 1681 q 603 1189 804 1453 q 508 1025 557 1130 q 368 1025 389 1025 l 377 903 l 465 903 m 313 781 l 264 781 l 237 1145 q 431 1147 389 1147 q 506 1263 452 1194 q 1072 1664 730 1558 q 1910 1472 1537 1819 q 1769 1058 1872 1301 q 1267 1164 1439 1196 q 1139 1150 1114 1128 q 1627 1150 1411 1151 q 1546 781 1600 970 q 871 781 1282 781 q 878 816 873 786 q 1556 817 1323 818 q 1476 448 1529 637 q 903 448 1227 448 q 932 458 892 478 q 1636 597 1232 374 q 1669 119 1684 264 q 1142 -140 1510 -62 q 555 -45 774 -218 q 300 453 337 127 q 298 448 298 482 l 193 448 l 167 812 q 319 814 304 814 q 313 781 319 810 z "},"Œ":{"ha":2494,"x_min":119,"x_max":2968,"o":"m 806 614 q 966 485 821 488 q 1219 576 1109 477 q 1318 825 1343 703 q 1162 966 1286 968 q 859 775 980 951 q 806 614 804 687 m 1251 13 q 2369 22 2111 7 q 2418 349 2393 116 q 1750 348 2164 347 l 1822 688 q 2288 708 2195 700 l 2330 941 l 1873 926 l 1948 1291 q 2642 1326 2195 1326 q 2839 1685 2840 1682 q 1512 1553 2402 1706 q 730 1364 1149 1685 q 412 987 553 1232 q 267 545 294 761 q 309 192 244 351 q 768 -72 452 -71 q 1251 13 1034 -79 m 684 604 q 758 843 680 721 q 1155 1088 912 1067 q 1438 850 1382 1093 q 1303 488 1475 664 q 962 363 1154 352 q 684 604 712 368 m 1275 -109 q 766 -194 1057 -201 q 198 140 378 -193 q 146 559 119 334 q 304 1045 176 798 q 656 1462 459 1314 q 1523 1679 1128 1822 q 2944 1803 2395 1828 q 2714 1204 2968 1660 q 2050 1182 2204 1204 l 2024 1053 l 2478 1067 l 2391 594 q 1921 569 2201 578 l 1900 470 q 2553 472 2164 469 q 2464 -95 2514 94 q 1275 -109 2114 -115 z "},"œ":{"ha":1961,"x_min":56,"x_max":2376,"o":"m 680 498 q 785 374 685 376 q 979 471 888 368 q 1060 680 1076 578 q 954 791 1038 793 q 723 633 817 779 q 680 498 678 560 m 977 -32 q 1921 -27 1715 -28 q 1968 231 1931 52 q 1416 230 1769 222 l 1477 522 q 1864 531 1793 526 l 1901 710 l 1511 705 l 1573 1017 l 2130 1011 q 2209 1291 2157 1128 q 1283 1282 1517 1290 q 621 1140 1009 1418 q 375 825 481 1028 q 244 434 269 622 q 345 13 189 190 q 912 -53 500 -165 q 977 -32 940 -45 m 557 494 q 620 699 555 593 q 947 913 747 895 q 1181 701 1139 918 q 1069 389 1206 539 q 780 252 940 242 q 557 494 568 257 m 999 -154 q 945 -171 977 -162 q 257 -74 458 -303 q 123 456 56 156 q 268 883 151 660 q 547 1238 385 1107 q 1310 1405 998 1560 q 2376 1413 1514 1412 q 2227 888 2275 1095 l 1673 894 l 1660 829 l 2050 833 l 1966 416 q 1576 401 1799 404 l 1565 349 q 2119 359 1768 345 q 2028 -148 2052 32 q 999 -154 1716 -151 z "}}}
